<?xml version="1.0" encoding="UTF-8" standalone="no"?>
<!-- Generator: Adobe Illustrator 15.1.0, SVG Export Plug-In . SVG Version: 6.00 Build 0)  -->

<svg xmlns:osb="http://www.openswatchbook.org/uri/2009/osb" xmlns:dc="http://purl.org/dc/elements/1.1/" xmlns:cc="http://creativecommons.org/ns#" xmlns:rdf="http://www.w3.org/1999/02/22-rdf-syntax-ns#" xmlns:svg="http://www.w3.org/2000/svg" xmlns="http://www.w3.org/2000/svg" xmlns:xlink="http://www.w3.org/1999/xlink" xmlns:sodipodi="http://sodipodi.sourceforge.net/DTD/sodipodi-0.dtd" xmlns:inkscape="http://www.inkscape.org/namespaces/inkscape" version="1.0" id="Layer_1" x="0px" y="0px" width="96" height="96" viewBox="0 0 96 96" enable-background="new 0 0 792 612" xml:space="preserve" inkscape:version="0.91 r13725" sodipodi:docname="android.svg"><metadata id="metadata49"><rdf:RDF><cc:Work rdf:about=""><dc:format>image/svg+xml</dc:format><dc:type rdf:resource="http://purl.org/dc/dcmitype/StillImage" /><dc:title></dc:title></cc:Work></rdf:RDF></metadata><defs id="defs47"><linearGradient osb:paint="solid" id="linearGradient3942"><stop id="stop3944" offset="0" style="stop-color:#ffffff;stop-opacity:1;" /></linearGradient><linearGradient inkscape:collect="always" xlink:href="#linearGradient6114" id="linearGradient6112" x1="346.11499" y1="520.72614" x2="346.11499" y2="567.32123" gradientUnits="userSpaceOnUse" /><radialGradient inkscape:collect="always" xlink:href="#linearGradient6030" id="radialGradient6106" gradientUnits="userSpaceOnUse" gradientTransform="matrix(4.39697,-0.781364,0.273452,1.5388,-1379.4,111.904)" cx="363.84866" cy="494.10422" fx="363.84866" fy="494.10422" r="88.392456" /><linearGradient inkscape:collect="always" xlink:href="#linearGradient6056" id="linearGradient6054" x1="331.34576" y1="452.02783" x2="331.34576" y2="574.2973" gradientUnits="userSpaceOnUse" /><linearGradient id="linearGradient6030"><stop style="stop-color:#ffffff;stop-opacity:1;" offset="0" id="stop6032" /><stop id="stop6038" offset="0.5" style="stop-color:#000000;stop-opacity:1;" /><stop style="stop-color:#ffffff;stop-opacity:1;" offset="0.51028222" id="stop6040" /><stop style="stop-color:#000000;stop-opacity:1;" offset="1" id="stop6034" /></linearGradient><linearGradient id="linearGradient6056"><stop id="stop6062" offset="0" style="stop-color:#ffffff;stop-opacity:1;" /><stop id="stop6064" offset="1" style="stop-color:#838383;stop-opacity:1;" /></linearGradient><linearGradient id="linearGradient6114"><stop style="stop-color:#ffffff;stop-opacity:0;" offset="0" id="stop6116" /><stop style="stop-color:#000000;stop-opacity:0.53846157;" offset="1" id="stop6118" /></linearGradient><radialGradient cx="77.914261" cy="-48.544521" r="146" fx="77.914261" fy="-48.544521" id="radialGradient3870" xlink:href="#linearGradient3798" gradientUnits="userSpaceOnUse" gradientTransform="matrix(1.5089497,0,0,1.3582164,-39.028917,76.957747)" /><linearGradient x1="150" y1="84" x2="299" y2="84" id="linearGradient3798" gradientUnits="userSpaceOnUse"><stop id="stop3800" style="stop-color:#dddce9;stop-opacity:1" offset="0" /><stop id="stop3802" style="stop-color:#5664a3;stop-opacity:1" offset="0.37" /><stop id="stop3804" style="stop-color:#000000;stop-opacity:1" offset="1" /></linearGradient><linearGradient id="linearGradient5463"><stop style="stop-color:#fec070;stop-opacity:1;" offset="0" id="stop5465" /><stop style="stop-color:#fec070;stop-opacity:0;" offset="1" id="stop5467" /></linearGradient><linearGradient id="linearGradient5471"><stop style="stop-color:#fec878;stop-opacity:1" offset="0" id="stop5473" /><stop style="stop-color:#ffa150;stop-opacity:1;" offset="1" id="stop5475" /></linearGradient><clipPath clipPathUnits="userSpaceOnUse" id="clipPath18"><path inkscape:connector-curvature="0" d="M 0,501.602 0,0 l 1863.85,0 0,501.602 -1863.85,0 z" id="path20" /></clipPath><clipPath clipPathUnits="userSpaceOnUse" id="clipPath18-9"><path inkscape:connector-curvature="0" d="M 0,501.602 0,0 l 1863.85,0 0,501.602 -1863.85,0 z" id="path20-0" /></clipPath><clipPath clipPathUnits="userSpaceOnUse" id="clipPath18-9-1"><path inkscape:connector-curvature="0" d="M 0,501.602 0,0 l 1863.85,0 0,501.602 -1863.85,0 z" id="path20-0-9" /></clipPath><clipPath clipPathUnits="userSpaceOnUse" id="clipPath18-9-1-5"><path inkscape:connector-curvature="0" d="M 0,501.602 0,0 l 1863.85,0 0,501.602 -1863.85,0 z" id="path20-0-9-8" /></clipPath><linearGradient id="linearGradient4689"><stop id="stop4691" offset="0" style="stop-color:#5a9fd4;stop-opacity:1;" /><stop id="stop4693" offset="1" style="stop-color:#306998;stop-opacity:1;" /></linearGradient><linearGradient id="linearGradient4671"><stop id="stop4673" offset="0" style="stop-color:#ffd43b;stop-opacity:1;" /><stop id="stop4675" offset="1" style="stop-color:#ffe873;stop-opacity:1" /></linearGradient><linearGradient id="c"><stop id="stop4686" stop-opacity=".498" stop-color="#b8b8b8" offset="0" /><stop id="stop4688" stop-opacity="0" stop-color="#7f7f7f" offset="1" /></linearGradient><linearGradient id="linearGradient4700" gradientTransform="matrix(0.562541,0,0,0.567972,-9.399749,304.46299)" gradientUnits="userSpaceOnUse" xlink:href="#linearGradient4671" y2="137.273" x2="112.031" y1="192.352" x1="150.961" /><linearGradient id="linearGradient4702" gradientTransform="matrix(0.562541,0,0,0.567972,-9.399749,304.46299)" gradientUnits="userSpaceOnUse" xlink:href="#linearGradient4689" y2="114.398" x2="135.665" y1="20.604" x1="26.649" /><radialGradient id="radialGradient4704" gradientTransform="matrix(2.382716e-8,-0.296405,1.43676,4.683673e-7,-128.544,150.5202)" gradientUnits="userSpaceOnUse" xlink:href="#c" fy="132.286" fx="61.519" r="29.037" cy="132.286" cx="61.519" /><linearGradient gradientTransform="matrix(0.562541,0,0,0.567972,-9.399749,304.46299)" gradientUnits="userSpaceOnUse" xlink:href="#linearGradient4689" id="d" y2="114.398" x2="135.665" y1="20.604" x1="26.649" /><linearGradient gradientTransform="matrix(0.562541,0,0,0.567972,-9.399749,304.46299)" gradientUnits="userSpaceOnUse" xlink:href="#linearGradient4671" id="e" y2="137.273" x2="112.031" y1="192.352" x1="150.961" /><radialGradient gradientTransform="matrix(1.5089497,0,0,1.3582164,-39.028917,76.957747)" gradientUnits="userSpaceOnUse" xlink:href="#linearGradient3798" id="radialGradient3870-0" fy="-48.544521" fx="77.914261" r="146" cy="-48.544521" cx="77.914261" /><radialGradient gradientTransform="matrix(1.5089497,0,0,1.3582164,-39.028917,76.957747)" gradientUnits="userSpaceOnUse" xlink:href="#linearGradient3798" id="radialGradient3870-4" fy="-48.544521" fx="77.914261" r="146" cy="-48.544521" cx="77.914261" /><radialGradient gradientTransform="matrix(1.5089497,0,0,1.3582164,-39.028917,76.957747)" gradientUnits="userSpaceOnUse" xlink:href="#linearGradient3798" id="radialGradient3870-7" fy="-48.544521" fx="77.914261" r="146" cy="-48.544521" cx="77.914261" /><radialGradient gradientTransform="matrix(1.5089497,0,0,1.3582164,-39.028917,76.957747)" gradientUnits="userSpaceOnUse" xlink:href="#linearGradient3798" id="radialGradient3870-2" fy="-48.544521" fx="77.914261" r="146" cy="-48.544521" cx="77.914261" /></defs><sodipodi:namedview pagecolor="#ffffff" bordercolor="#666666" borderopacity="1" objecttolerance="10" gridtolerance="10" guidetolerance="10" inkscape:pageopacity="0" inkscape:pageshadow="2" inkscape:window-width="1745" inkscape:window-height="1018" id="namedview45" showgrid="false" inkscape:zoom="0.54535033" inkscape:cx="196.76321" inkscape:cy="-304.72199" inkscape:window-x="0" inkscape:window-y="0" inkscape:window-maximized="0" inkscape:current-layer="g5508" /><style id="style3489" type="text/css"><![CDATA[
	.st0{fill:#EBEBEB;}
	.st1{fill:#8ACF17;}
	.st2{fill:#FFFFFF;}
	.st3{fill:#63A814;}
]]></style><g id="g5508" transform="matrix(0.32647839,0,0,0.32647839,-41.807808,39.83804)"><g id="g5938" transform="matrix(0.60763319,0,0,0.60763319,123.44068,-126.90882)"><g display="none" id="max_width__x2F__height" style="display:none"><path id="path5917" d="m 499.001,1 0,498 L 1,499 1,1 499.001,1 m 1,-1 L 0,0 l 0,500 500.001,0 0,-500 0,0 z" display="inline" inkscape:connector-curvature="0" style="display:inline" /></g><g id="androd"><path id="path5920" d="m 301.314,83.298 20.159,-29.272 c 1.197,-1.74 0.899,-4.024 -0.666,-5.104 -1.563,-1.074 -3.805,-0.543 -4.993,1.199 L 294.863,80.53 c -13.807,-5.439 -29.139,-8.47 -45.299,-8.47 -16.16,0 -31.496,3.028 -45.302,8.47 L 183.314,50.12 c -1.201,-1.74 -3.439,-2.273 -5.003,-1.199 -1.564,1.077 -1.861,3.362 -0.664,5.104 l 20.166,29.272 c -32.063,14.916 -54.548,43.26 -57.413,76.34 l 218.316,0 c -2.855,-33.08 -25.341,-61.423 -57.402,-76.339" inkscape:connector-curvature="0" style="fill:#9fbf3b" /><path id="path5922" d="m 203.956,129.438 c -6.673,0 -12.08,-5.407 -12.08,-12.079 0,-6.671 5.404,-12.08 12.08,-12.08 6.668,0 12.073,5.407 12.073,12.08 0.001,6.671 -5.405,12.079 -12.073,12.079" inkscape:connector-curvature="0" style="fill:#ffffff" /><path id="path5924" d="m 295.161,129.438 c -6.668,0 -12.074,-5.407 -12.074,-12.079 0,-6.673 5.406,-12.08 12.074,-12.08 6.675,0 12.079,5.409 12.079,12.08 0,6.671 -5.406,12.079 -12.079,12.079" inkscape:connector-curvature="0" style="fill:#ffffff" /><path id="path5926" d="m 126.383,297.598 c 0,13.45 -10.904,24.354 -24.355,24.354 l 0,0 c -13.45,0 -24.354,-10.904 -24.354,-24.354 l 0,-98.508 c 0,-13.45 10.904,-24.354 24.354,-24.354 l 0,0 c 13.451,0 24.355,10.904 24.355,24.354 l 0,98.508 z" inkscape:connector-curvature="0" style="fill:#9fbf3b" /><path id="path5928" d="m 140.396,175.489 0,177.915 c 0,10.566 8.566,19.133 19.135,19.133 l 22.633,0 0,54.744 c 0,13.451 10.903,24.354 24.354,24.354 13.451,0 24.355,-10.903 24.355,-24.354 l 0,-54.744 37.371,0 0,54.744 c 0,13.451 10.902,24.354 24.354,24.354 13.452,0 24.354,-10.903 24.354,-24.354 l 0,-54.744 22.633,0 c 10.569,0 19.137,-8.562 19.137,-19.133 l 0,-177.915 -218.326,0 z" inkscape:connector-curvature="0" style="fill:#9fbf3b" /><path id="path5930" d="m 372.734,297.598 c 0,13.45 10.903,24.354 24.354,24.354 l 0,0 c 13.45,0 24.354,-10.904 24.354,-24.354 l 0,-98.508 c 0,-13.45 -10.904,-24.354 -24.354,-24.354 l 0,0 c -13.451,0 -24.354,10.904 -24.354,24.354 l 0,98.508 z" inkscape:connector-curvature="0" style="fill:#9fbf3b" /></g></g></g></svg>