<?xml version="1.0" encoding="UTF-8" standalone="no"?>
<!-- Generator: Adobe Illustrator 15.1.0, SVG Export Plug-In . SVG Version: 6.00 Build 0)  -->

<svg xmlns:dc="http://purl.org/dc/elements/1.1/" xmlns:cc="http://creativecommons.org/ns#" xmlns:rdf="http://www.w3.org/1999/02/22-rdf-syntax-ns#" xmlns:svg="http://www.w3.org/2000/svg" xmlns="http://www.w3.org/2000/svg" xmlns:sodipodi="http://sodipodi.sourceforge.net/DTD/sodipodi-0.dtd" xmlns:inkscape="http://www.inkscape.org/namespaces/inkscape" version="1.0" id="Layer_1" x="0px" y="0px" width="96" height="96" viewBox="0 0 96 96" enable-background="new 0 0 792 612" xml:space="preserve" inkscape:version="0.91 r13725" sodipodi:docname="apple.svg"><metadata id="metadata49"><rdf:RDF><cc:Work rdf:about=""><dc:format>image/svg+xml</dc:format><dc:type rdf:resource="http://purl.org/dc/dcmitype/StillImage" /><dc:title></dc:title></cc:Work></rdf:RDF></metadata><defs id="defs47" /><sodipodi:namedview pagecolor="#ffffff" bordercolor="#666666" borderopacity="1" objecttolerance="10" gridtolerance="10" guidetolerance="10" inkscape:pageopacity="0" inkscape:pageshadow="2" inkscape:window-width="1454" inkscape:window-height="818" id="namedview45" showgrid="false" inkscape:zoom="0.77124183" inkscape:cx="202.0521" inkscape:cy="317.26704" inkscape:window-x="313" inkscape:window-y="57" inkscape:window-maximized="0" inkscape:current-layer="Layer_1" /><style id="style3489" type="text/css"><![CDATA[
	.st0{fill:#EBEBEB;}
	.st1{fill:#8ACF17;}
	.st2{fill:#FFFFFF;}
	.st3{fill:#63A814;}
]]></style><g id="g4294" transform="matrix(0.74504091,0,0,0.74504091,-1.4712167,-0.34371327)"><g display="none" id="Layer_1-6" style="display:none"><path id="path4255" d="m 78.106,63.642 c 0,0 -1.774,2.483 -4.612,5.323 -2.84,2.838 -7.629,6.032 -7.629,6.032 0,0 7.45,5.325 5.322,16.327 -2.129,11.002 -11.355,22 -11.355,22 0,0 21.468,-6.56 24.663,-21.114 3.192,-14.55 -6.389,-28.568 -6.389,-28.568 l 0,0 z" display="inline" inkscape:connector-curvature="0" style="clip-rule:evenodd;display:inline;fill:#656565;fill-rule:evenodd" /><path id="path4257" d="m 68.407,53.115 c 0,0 -11.89,-4.792 -23.424,-1.064 -11.534,3.725 -20.407,21.471 -20.407,21.471 0,0 6.921,-6.919 14.906,-8.872 7.986,-1.953 16.68,0.886 16.68,0.886 l 12.245,-12.421 0,0 z" display="inline" inkscape:connector-curvature="0" style="clip-rule:evenodd;display:inline;fill:#656565;fill-rule:evenodd" /><path id="path4259" d="m 51.183,71.919 c 0,0 -2.361,8.44 -14.839,20.93 C 25.48,103.719 0,118.077 0,118.077 c 0,0 30.241,-5.806 42.843,-17.323 C 58.2,86.729 59.327,76.63 59.327,76.63 l -8.144,-4.711 0,0 z" display="inline" inkscape:connector-curvature="0" style="clip-rule:evenodd;display:inline;fill:#656565;fill-rule:evenodd" /><path id="path4261" d="m 49.894,66.837 c 0,0 12.598,-20.23 29.633,-33.362 17.035,-13.13 43.12,-19.519 43.12,-19.519 0,0 -23.602,13.664 -39.75,31.409 C 66.75,63.11 60.361,78.547 60.361,78.547 c 0,0 -5.501,0.354 -8.34,-2.307 -2.839,-2.66 -2.127,-9.403 -2.127,-9.403 l 0,0 z" display="inline" inkscape:connector-curvature="0" style="clip-rule:evenodd;display:inline;fill:#656565;fill-rule:evenodd" /><path id="path4263" d="m 54.657,61.216 c 0,0 -7.024,-0.353 -14.431,1.42 -8.518,2.041 -17.035,8.517 -17.035,8.517 0,0 3.691,-14.97 16.68,-20.937 13.13,-6.034 24.251,-1.302 24.251,-1.302 0,0 -12.451,-1.538 -24.251,4.317 -11.985,5.947 -16.68,17.922 -16.68,17.922 0,0 7.542,-8.873 16.146,-10.823 7.388,-1.677 15.32,0.886 15.32,0.886 l 0,0 z" display="inline" inkscape:connector-curvature="0" style="clip-rule:evenodd;display:inline;fill:#656565;fill-rule:evenodd" /><path id="path4265" d="m 55.131,65.712 c 0,0 8.352,-15.91 25.374,-30.313 15.378,-13.014 42.766,-20.318 42.766,-20.318 0,0 -25.435,10.145 -40.813,23.157 C 67.079,51.25 55.131,65.712 55.131,65.712 l 0,0 z" display="inline" inkscape:connector-curvature="0" style="clip-rule:evenodd;display:inline;fill:#656565;fill-rule:evenodd" /><path id="path4267" d="m 53.947,68.965 c 0,0 -1.774,5.473 1.064,8.072 2.839,2.604 8.873,1.629 8.873,1.629 0,0 -4.082,-0.797 -6.92,-3.402 -2.838,-2.602 -3.017,-6.299 -3.017,-6.299 l 0,0 z" display="inline" inkscape:connector-curvature="0" style="clip-rule:evenodd;display:inline;fill:#656565;fill-rule:evenodd" /><path id="path4269" d="m 56.698,66.845 c 0,0 4.805,-1.533 7.45,1.264 2.651,2.798 2.405,8.52 2.405,8.52 0,0 -1.502,-3.742 -4.147,-6.538 -2.647,-2.799 -5.708,-3.246 -5.708,-3.246 l 0,0 z" display="inline" inkscape:connector-curvature="0" style="clip-rule:evenodd;display:inline;fill:#656565;fill-rule:evenodd" /><path id="path4271" d="m 58.853,77.001 c 0,0 -6.541,17.837 -20.225,26.367 -13.685,8.532 -34.195,11.853 -34.195,11.853 0,0 19.375,-5.808 32.302,-13.867 13.684,-8.525 22.118,-24.353 22.118,-24.353 l 0,0 z" display="inline" inkscape:connector-curvature="0" style="clip-rule:evenodd;display:inline;fill:#656565;fill-rule:evenodd" /><path id="path4273" d="m 66.725,112.655 c 0,0 7.571,-6.478 8.989,-17.36 C 77.135,84.409 69.8,80.24 69.8,80.24 c 0,0 4.496,4.168 3.075,15.055 -1.418,10.882 -6.15,17.36 -6.15,17.36 l 0,0 z" display="inline" inkscape:connector-curvature="0" style="clip-rule:evenodd;display:inline;fill:#656565;fill-rule:evenodd" /><path id="path4275" d="m 62.938,114.451 c 0,0 19.95,-6.667 24.604,-20.82 6.582,-20.003 -6.86,-33.123 -6.86,-33.123 0,0 10.293,13.13 4.26,31.467 -4.657,14.152 -22.004,22.476 -22.004,22.476 l 0,0 z" display="inline" inkscape:connector-curvature="0" style="clip-rule:evenodd;display:inline;fill:#656565;fill-rule:evenodd" /><path id="path4277" d="m 128.356,12.833 c 0,0 -9.937,24.607 -26.261,40.222 C 87.496,67.02 74.56,73.193 74.56,73.193 c 0,0 8.786,-6.475 25.11,-22.09 16.324,-15.615 28.686,-38.27 28.686,-38.27 l 0,0 z" display="inline" inkscape:connector-curvature="0" style="clip-rule:evenodd;display:inline;fill:#656565;fill-rule:evenodd" /><path id="path4279" d="m 119.857,33.585 c 0,0 1.784,-6.479 -1.276,-9.756 -2.057,-2.201 -6.748,-1.746 -6.748,-1.746 0,0 2.71,0.847 4.828,2.983 2.991,3.022 3.196,8.519 3.196,8.519 l 0,0 z" display="inline" inkscape:connector-curvature="0" style="clip-rule:evenodd;display:inline;fill:#656565;fill-rule:evenodd" /><path id="path4281" d="m 66.605,44.301 c 0,0 6.387,0 11.595,4.377 5.204,4.377 5.914,8.752 5.914,8.752 0,0 1.064,-6.86 -4.023,-11.237 -5.007,-4.309 -13.486,-1.892 -13.486,-1.892 l 0,0 z" display="inline" inkscape:connector-curvature="0" style="clip-rule:evenodd;display:inline;fill:#656565;fill-rule:evenodd" /></g><g id="Layer_2"><path id="path4284" d="M 96.307,68.304 C 96.18,54.735 107.647,48.132 108.173,47.827 101.678,38.555 91.609,37.28 88.078,37.186 c -8.459,-0.867 -16.659,4.957 -20.965,4.957 -4.389,0 -11.027,-4.871 -18.169,-4.723 -9.196,0.141 -17.803,5.352 -22.526,13.449 -9.739,16.512 -2.474,40.781 6.853,54.123 4.666,6.543 10.121,13.835 17.26,13.577 6.985,-0.275 9.591,-4.357 18.025,-4.357 8.353,0 10.805,4.357 18.083,4.192 7.494,-0.111 12.22,-6.564 16.721,-13.162 5.396,-7.492 7.559,-14.866 7.648,-15.249 -0.175,-0.06 -14.554,-5.428 -14.701,-21.689 z" inkscape:connector-curvature="0" style="fill:#656565" /><path id="path4286" d="m 82.549,28.41 c 3.757,-4.605 6.322,-10.859 5.614,-17.211 -5.441,0.232 -12.241,3.678 -16.154,8.183 -3.465,3.959 -6.557,10.462 -5.758,16.575 6.108,0.444 12.378,-3.019 16.298,-7.547 z" inkscape:connector-curvature="0" style="fill:#656565" /></g></g></svg>