<?xml version="1.0" encoding="UTF-8" standalone="no"?>
<!-- Generator: Adobe Illustrator 15.1.0, SVG Export Plug-In . SVG Version: 6.00 Build 0)  -->

<svg xmlns:dc="http://purl.org/dc/elements/1.1/" xmlns:cc="http://creativecommons.org/ns#" xmlns:rdf="http://www.w3.org/1999/02/22-rdf-syntax-ns#" xmlns:svg="http://www.w3.org/2000/svg" xmlns="http://www.w3.org/2000/svg" xmlns:sodipodi="http://sodipodi.sourceforge.net/DTD/sodipodi-0.dtd" xmlns:inkscape="http://www.inkscape.org/namespaces/inkscape" version="1.0" id="Layer_1" x="0px" y="0px" width="96" height="96" viewBox="0 0 96 96" enable-background="new 0 0 792 612" xml:space="preserve" inkscape:version="0.91 r13725" sodipodi:docname="arduino.svg"><metadata id="metadata49"><rdf:RDF><cc:Work rdf:about=""><dc:format>image/svg+xml</dc:format><dc:type rdf:resource="http://purl.org/dc/dcmitype/StillImage" /><dc:title></dc:title></cc:Work></rdf:RDF></metadata><defs id="defs47" /><sodipodi:namedview pagecolor="#ffffff" bordercolor="#666666" borderopacity="1" objecttolerance="10" gridtolerance="10" guidetolerance="10" inkscape:pageopacity="0" inkscape:pageshadow="2" inkscape:window-width="1454" inkscape:window-height="818" id="namedview45" showgrid="false" inkscape:zoom="0.77124183" inkscape:cx="202.0521" inkscape:cy="317.26704" inkscape:window-x="158" inkscape:window-y="0" inkscape:window-maximized="0" inkscape:current-layer="Layer_1" /><style id="style3489" type="text/css"><![CDATA[
	.st0{fill:#EBEBEB;}
	.st1{fill:#8ACF17;}
	.st2{fill:#FFFFFF;}
	.st3{fill:#63A814;}
]]></style><g id="g4140" transform="matrix(0.88208702,0,0,0.88208702,-8.4535693,-8.4535693)"><path id="path4142" d="m 109.347,64 c 0,-11.878 -10.022,-21.546 -22.342,-21.546 l 0,0 c -1.136,0 -2.29,0.077 -3.438,0.243 l 0,0 C 73.997,44.062 67.59,50.95 64.004,56.23 l 0,0 C 60.408,50.949 54.003,44.062 44.431,42.697 l 0,0 c -1.143,-0.166 -2.298,-0.243 -3.434,-0.243 l 0,0 C 28.673,42.454 18.653,52.121 18.653,64 l 0,0 c 0,11.884 10.02,21.546 22.335,21.546 l 0,0 c 1.143,0 2.301,-0.076 3.443,-0.236 l 0,0 c 9.572,-1.374 15.977,-8.262 19.573,-13.548 l 0,0 c 3.586,5.286 9.993,12.174 19.563,13.548 l 0,0 c 1.147,0.161 2.302,0.236 3.447,0.236 l 0,0 c 12.313,0 22.333,-9.662 22.333,-21.546 l 0,0 z M 43.35,77.743 c -0.785,0.111 -1.58,0.17 -2.362,0.17 l 0,0 c -8.103,0 -14.695,-6.244 -14.695,-13.914 l 0,0 c 0,-7.668 6.592,-13.917 14.704,-13.917 l 0,0 c 0.775,0 1.568,0.064 2.355,0.172 l 0,0 c 9.016,1.287 14.539,10.182 16.41,13.741 l 0,0 C 57.889,67.564 52.368,76.456 43.35,77.743 l 0,0 z M 68.243,64 C 70.114,60.437 75.63,51.542 84.65,50.255 l 0,0 c 0.782,-0.108 1.58,-0.172 2.355,-0.172 l 0,0 c 8.107,0 14.702,6.248 14.702,13.917 l 0,0 c 0,7.669 -6.594,13.914 -14.693,13.914 l 0,0 c -0.778,0 -1.576,-0.059 -2.365,-0.17 l 0,0 C 75.63,76.456 70.11,67.559 68.243,64 l 0,0 z" inkscape:connector-curvature="0" style="fill:#00979d" /><polygon id="polygon4144" points="34.84,66.22 48.253,66.22 48.253,66.22 48.253,61.895 48.253,61.895 34.84,61.895 34.84,61.895 34.84,66.22 " style="fill:#00979d" /><polygon id="polygon4146" points="88.493,57.347 84.159,57.347 84.159,57.347 84.159,61.895 84.159,61.895 79.617,61.895 79.617,61.895 79.617,66.22 79.617,66.22 84.159,66.22 84.159,66.22 84.159,70.77 84.159,70.77 88.493,70.77 88.493,70.77 88.493,66.22 88.493,66.22 93.029,66.22 93.029,66.22 93.029,61.895 93.029,61.895 88.493,61.895 88.493,61.895 88.493,57.347 " style="fill:#00979d" /></g></svg>