<?xml version="1.0" encoding="UTF-8" standalone="no"?>
<!-- Generator: Adobe Illustrator 15.1.0, SVG Export Plug-In . SVG Version: 6.00 Build 0)  -->

<svg xmlns:osb="http://www.openswatchbook.org/uri/2009/osb" xmlns:dc="http://purl.org/dc/elements/1.1/" xmlns:cc="http://creativecommons.org/ns#" xmlns:rdf="http://www.w3.org/1999/02/22-rdf-syntax-ns#" xmlns:svg="http://www.w3.org/2000/svg" xmlns="http://www.w3.org/2000/svg" xmlns:xlink="http://www.w3.org/1999/xlink" xmlns:sodipodi="http://sodipodi.sourceforge.net/DTD/sodipodi-0.dtd" xmlns:inkscape="http://www.inkscape.org/namespaces/inkscape" version="1.0" id="Layer_1" x="0px" y="0px" width="96" height="96" viewBox="0 0 96 96" enable-background="new 0 0 792 612" xml:space="preserve" inkscape:version="0.91 r13725" sodipodi:docname="atmel.svg"><metadata id="metadata49"><rdf:RDF><cc:Work rdf:about=""><dc:format>image/svg+xml</dc:format><dc:type rdf:resource="http://purl.org/dc/dcmitype/StillImage" /><dc:title></dc:title></cc:Work></rdf:RDF></metadata><defs id="defs47"><linearGradient osb:paint="solid" id="linearGradient3942"><stop id="stop3944" offset="0" style="stop-color:#ffffff;stop-opacity:1;" /></linearGradient><linearGradient inkscape:collect="always" xlink:href="#linearGradient6114" id="linearGradient6112" x1="346.11499" y1="520.72614" x2="346.11499" y2="567.32123" gradientUnits="userSpaceOnUse" /><radialGradient inkscape:collect="always" xlink:href="#linearGradient6030" id="radialGradient6106" gradientUnits="userSpaceOnUse" gradientTransform="matrix(4.39697,-0.781364,0.273452,1.5388,-1379.4,111.904)" cx="363.84866" cy="494.10422" fx="363.84866" fy="494.10422" r="88.392456" /><linearGradient inkscape:collect="always" xlink:href="#linearGradient6056" id="linearGradient6054" x1="331.34576" y1="452.02783" x2="331.34576" y2="574.2973" gradientUnits="userSpaceOnUse" /><linearGradient id="linearGradient6030"><stop style="stop-color:#ffffff;stop-opacity:1;" offset="0" id="stop6032" /><stop id="stop6038" offset="0.5" style="stop-color:#000000;stop-opacity:1;" /><stop style="stop-color:#ffffff;stop-opacity:1;" offset="0.51028222" id="stop6040" /><stop style="stop-color:#000000;stop-opacity:1;" offset="1" id="stop6034" /></linearGradient><linearGradient id="linearGradient6056"><stop id="stop6062" offset="0" style="stop-color:#ffffff;stop-opacity:1;" /><stop id="stop6064" offset="1" style="stop-color:#838383;stop-opacity:1;" /></linearGradient><linearGradient id="linearGradient6114"><stop style="stop-color:#ffffff;stop-opacity:0;" offset="0" id="stop6116" /><stop style="stop-color:#000000;stop-opacity:0.53846157;" offset="1" id="stop6118" /></linearGradient><radialGradient cx="77.914261" cy="-48.544521" r="146" fx="77.914261" fy="-48.544521" id="radialGradient3870" xlink:href="#linearGradient3798" gradientUnits="userSpaceOnUse" gradientTransform="matrix(1.5089497,0,0,1.3582164,-39.028917,76.957747)" /><linearGradient x1="150" y1="84" x2="299" y2="84" id="linearGradient3798" gradientUnits="userSpaceOnUse"><stop id="stop3800" style="stop-color:#dddce9;stop-opacity:1" offset="0" /><stop id="stop3802" style="stop-color:#5664a3;stop-opacity:1" offset="0.37" /><stop id="stop3804" style="stop-color:#000000;stop-opacity:1" offset="1" /></linearGradient><linearGradient id="linearGradient5463"><stop style="stop-color:#fec070;stop-opacity:1;" offset="0" id="stop5465" /><stop style="stop-color:#fec070;stop-opacity:0;" offset="1" id="stop5467" /></linearGradient><linearGradient id="linearGradient5471"><stop style="stop-color:#fec878;stop-opacity:1" offset="0" id="stop5473" /><stop style="stop-color:#ffa150;stop-opacity:1;" offset="1" id="stop5475" /></linearGradient><clipPath clipPathUnits="userSpaceOnUse" id="clipPath18"><path inkscape:connector-curvature="0" d="M 0,501.602 0,0 l 1863.85,0 0,501.602 -1863.85,0 z" id="path20" /></clipPath><clipPath clipPathUnits="userSpaceOnUse" id="clipPath18-9"><path inkscape:connector-curvature="0" d="M 0,501.602 0,0 l 1863.85,0 0,501.602 -1863.85,0 z" id="path20-0" /></clipPath><clipPath clipPathUnits="userSpaceOnUse" id="clipPath18-9-1"><path inkscape:connector-curvature="0" d="M 0,501.602 0,0 l 1863.85,0 0,501.602 -1863.85,0 z" id="path20-0-9" /></clipPath><clipPath clipPathUnits="userSpaceOnUse" id="clipPath18-9-1-5"><path inkscape:connector-curvature="0" d="M 0,501.602 0,0 l 1863.85,0 0,501.602 -1863.85,0 z" id="path20-0-9-8" /></clipPath><linearGradient id="linearGradient4689"><stop id="stop4691" offset="0" style="stop-color:#5a9fd4;stop-opacity:1;" /><stop id="stop4693" offset="1" style="stop-color:#306998;stop-opacity:1;" /></linearGradient><linearGradient id="linearGradient4671"><stop id="stop4673" offset="0" style="stop-color:#ffd43b;stop-opacity:1;" /><stop id="stop4675" offset="1" style="stop-color:#ffe873;stop-opacity:1" /></linearGradient><linearGradient id="c"><stop id="stop4686" stop-opacity=".498" stop-color="#b8b8b8" offset="0" /><stop id="stop4688" stop-opacity="0" stop-color="#7f7f7f" offset="1" /></linearGradient><linearGradient id="linearGradient4700" gradientTransform="matrix(0.562541,0,0,0.567972,-9.399749,304.46299)" gradientUnits="userSpaceOnUse" xlink:href="#linearGradient4671" y2="137.273" x2="112.031" y1="192.352" x1="150.961" /><linearGradient id="linearGradient4702" gradientTransform="matrix(0.562541,0,0,0.567972,-9.399749,304.46299)" gradientUnits="userSpaceOnUse" xlink:href="#linearGradient4689" y2="114.398" x2="135.665" y1="20.604" x1="26.649" /><radialGradient id="radialGradient4704" gradientTransform="matrix(2.382716e-8,-0.296405,1.43676,4.683673e-7,-128.544,150.5202)" gradientUnits="userSpaceOnUse" xlink:href="#c" fy="132.286" fx="61.519" r="29.037" cy="132.286" cx="61.519" /><linearGradient gradientTransform="matrix(0.562541,0,0,0.567972,-9.399749,304.46299)" gradientUnits="userSpaceOnUse" xlink:href="#linearGradient4689" id="d" y2="114.398" x2="135.665" y1="20.604" x1="26.649" /><linearGradient gradientTransform="matrix(0.562541,0,0,0.567972,-9.399749,304.46299)" gradientUnits="userSpaceOnUse" xlink:href="#linearGradient4671" id="e" y2="137.273" x2="112.031" y1="192.352" x1="150.961" /><radialGradient gradientTransform="matrix(1.5089497,0,0,1.3582164,-39.028917,76.957747)" gradientUnits="userSpaceOnUse" xlink:href="#linearGradient3798" id="radialGradient3870-0" fy="-48.544521" fx="77.914261" r="146" cy="-48.544521" cx="77.914261" /><radialGradient gradientTransform="matrix(1.5089497,0,0,1.3582164,-39.028917,76.957747)" gradientUnits="userSpaceOnUse" xlink:href="#linearGradient3798" id="radialGradient3870-4" fy="-48.544521" fx="77.914261" r="146" cy="-48.544521" cx="77.914261" /><radialGradient gradientTransform="matrix(1.5089497,0,0,1.3582164,-39.028917,76.957747)" gradientUnits="userSpaceOnUse" xlink:href="#linearGradient3798" id="radialGradient3870-7" fy="-48.544521" fx="77.914261" r="146" cy="-48.544521" cx="77.914261" /><radialGradient gradientTransform="matrix(1.5089497,0,0,1.3582164,-39.028917,76.957747)" gradientUnits="userSpaceOnUse" xlink:href="#linearGradient3798" id="radialGradient3870-2" fy="-48.544521" fx="77.914261" r="146" cy="-48.544521" cx="77.914261" /></defs><sodipodi:namedview pagecolor="#ffffff" bordercolor="#666666" borderopacity="1" objecttolerance="10" gridtolerance="10" guidetolerance="10" inkscape:pageopacity="0" inkscape:pageshadow="2" inkscape:window-width="1745" inkscape:window-height="1018" id="namedview45" showgrid="false" inkscape:zoom="2.1814013" inkscape:cx="10.38724" inkscape:cy="-50.803774" inkscape:window-x="0" inkscape:window-y="0" inkscape:window-maximized="0" inkscape:current-layer="g5508" /><style id="style3489" type="text/css"><![CDATA[
	.st0{fill:#EBEBEB;}
	.st1{fill:#8ACF17;}
	.st2{fill:#FFFFFF;}
	.st3{fill:#63A814;}
]]></style><g id="g5508" transform="matrix(0.32647839,0,0,0.32647839,-41.807808,39.83804)"><g style="fill-rule:evenodd;fill:#0055d4" id="g5649" transform="matrix(0.00575669,0,0,0.00575669,152.56077,-5.4483264)"><g id="Layer_x0020_1" transform="translate(0,-5.7926285)" style="fill:#0055d4"><metadata id="CorelCorpID_0Corel-Layer" /><path style="fill:#0055d4;fill-rule:nonzero" id="path3417" d="m 33809,4130 c 1415,0 1874,918 2027,1683 l -4207,0 c 268,-1071 1033,-1683 2180,-1683 z M 15757,8872 c -229,0 -459,-38 -650,-115 -229,-77 -421,-191 -574,-344 -153,-153 -268,-344 -344,-535 -77,-229 -115,-459 -115,-688 l 0,-2754 2409,0 0,-1568 -2409,0 0,-2868 -1568,0 0,2868 -803,0 0,1568 803,0 0,2754 c 0,459 77,880 268,1262 153,382 382,727 688,1033 306,306 650,535 1033,688 382,191 803,268 1262,268 l 765,0 0,-1568 -765,0 z M 8796,-1 0,10402 l 1836,0 2677,-3174 3098,0 0,-1453 -1836,0 3251,-3825 0,8452 1530,0 0,-10403 -1759,0 z m 19849,4742 c -191,-383 -421,-727 -727,-1033 -268,-306 -612,-535 -994,-688 -382,-191 -841,-268 -1262,-268 -535,0 -1033,115 -1492,383 -344,191 -688,459 -956,765 -268,-306 -574,-574 -956,-765 -421,-268 -918,-383 -1453,-383 -459,0 -880,77 -1262,268 -382,153 -727,421 -1033,688 -268,306 -497,650 -688,1033 -153,421 -229,841 -229,1300 l 0,4360 1568,0 0,-4360 c 0,-229 38,-459 153,-650 76,-191 191,-382 344,-535 153,-153 306,-268 497,-344 191,-76 421,-115 650,-115 229,0 421,38 650,115 191,76 344,191 497,344 153,153 268,344 344,535 115,191 153,421 153,650 l 0,4360 1568,0 0,-4360 c 0,-229 38,-459 153,-650 76,-191 191,-382 344,-535 153,-153 306,-268 497,-344 191,-76 421,-115 650,-115 229,0 421,38 612,115 229,76 382,191 535,344 153,153 268,344 344,535 115,191 153,421 153,650 l 0,4360 1568,0 0,-4360 c 0,-459 -77,-880 -230,-1300 z m 13118,4130 c -229,0 -459,-38 -650,-115 -229,-77 -382,-191 -535,-344 -153,-153 -306,-344 -383,-535 -76,-229 -115,-459 -115,-688 l 0,-7190 -1568,0 0,7190 c 0,459 115,880 268,1262 153,382 421,727 688,1033 306,306 650,535 1033,688 421,191 841,268 1262,268 l 803,0 0,-1568 -803,0 z m -5508,-1646 1300,0 0,-650 c 0,-1071 -344,-2027 -956,-2715 -688,-765 -1645,-1147 -2792,-1147 -1186,0 -2180,382 -2907,1147 -688,727 -1033,1683 -1033,2715 0,2295 1377,4016 3901,4016 2142,0 3251,-1186 3557,-2180 l -1721,0 c -382,574 -1147,880 -1797,841 -1262,-38 -2218,-918 -2180,-2027 z" inkscape:connector-curvature="0" /></g></g></g></svg>