<?xml version="1.0" encoding="UTF-8" standalone="no"?>
<!-- Generator: Adobe Illustrator 15.1.0, SVG Export Plug-In . SVG Version: 6.00 Build 0)  -->

<svg xmlns:dc="http://purl.org/dc/elements/1.1/" xmlns:cc="http://creativecommons.org/ns#" xmlns:rdf="http://www.w3.org/1999/02/22-rdf-syntax-ns#" xmlns:svg="http://www.w3.org/2000/svg" xmlns="http://www.w3.org/2000/svg" xmlns:sodipodi="http://sodipodi.sourceforge.net/DTD/sodipodi-0.dtd" xmlns:inkscape="http://www.inkscape.org/namespaces/inkscape" version="1.0" id="Layer_1" x="0px" y="0px" width="96" height="96" viewBox="0 0 96 96" enable-background="new 0 0 792 612" xml:space="preserve" inkscape:version="0.91 r13725" sodipodi:docname="js.svg"><metadata id="metadata49"><rdf:RDF><cc:Work rdf:about=""><dc:format>image/svg+xml</dc:format><dc:type rdf:resource="http://purl.org/dc/dcmitype/StillImage" /><dc:title></dc:title></cc:Work></rdf:RDF></metadata><defs id="defs47" /><sodipodi:namedview pagecolor="#ffffff" bordercolor="#666666" borderopacity="1" objecttolerance="10" gridtolerance="10" guidetolerance="10" inkscape:pageopacity="0" inkscape:pageshadow="2" inkscape:window-width="1454" inkscape:window-height="818" id="namedview45" showgrid="false" inkscape:zoom="0.77124183" inkscape:cx="406.91651" inkscape:cy="317.26704" inkscape:window-x="0" inkscape:window-y="0" inkscape:window-maximized="0" inkscape:current-layer="Layer_1" /><style id="style3489" type="text/css"><![CDATA[
	.st0{fill:#EBEBEB;}
	.st1{fill:#8ACF17;}
	.st2{fill:#FFFFFF;}
	.st3{fill:#63A814;}
]]></style><g id="g3507" transform="matrix(0.19047619,0,0,0.19047619,19.619048,8.0000001)"><path id="path3491" d="M 27,386 0,82 298,82 271,386 149,420 Z" class="st3" inkscape:connector-curvature="0" style="fill:#63a814" /><path id="path3493" d="M 149,393.84 247.48,366.54 270.68,107 149,107 Z" class="st1" inkscape:connector-curvature="0" style="fill:#8acf17" /><path d="m 55.476,145 3.33,37 142.38,0 -10.686,123.86 -41.64,11.228 -41.548,-11.203 -2.657,-29.885 -37.45,0 5.227,58.664 76.392,21.26 76.55,-21.26 L 242.348,145 Z" class="st2" id="J_1_" inkscape:connector-curvature="0" style="fill:#ffffff" /><path id="path3496" d="M 148.86,317.088 107.312,305.885 104.655,276 l -37.45,0 5.227,58.664 76.568,21.26 z M 58.805,182 149,182 l 0,-37 -93.524,0 z" class="st0" inkscape:connector-curvature="0" style="fill:#ebebeb" /><path id="path3498" d="m 122.07,0 0,36 -31,0 0,20 52,0 0,-56 z m 31,0 0,20.847 22.902,17.153 -22.902,0 0,18 53,0 0,-18.124 L 180.407,18 l 25.663,0 0,-18 z" inkscape:connector-curvature="0" /></g></svg>