<?xml version="1.0" encoding="UTF-8" standalone="no"?>
<!-- Generator: Adobe Illustrator 17.0.0, SVG Export Plug-In . SVG Version: 6.00 Build 0)  -->

<svg xmlns:dc="http://purl.org/dc/elements/1.1/" xmlns:cc="http://creativecommons.org/ns#" xmlns:rdf="http://www.w3.org/1999/02/22-rdf-syntax-ns#" xmlns:svg="http://www.w3.org/2000/svg" xmlns="http://www.w3.org/2000/svg" xmlns:sodipodi="http://sodipodi.sourceforge.net/DTD/sodipodi-0.dtd" xmlns:inkscape="http://www.inkscape.org/namespaces/inkscape" version="1.1" id="Capa_1" x="0px" y="0px" width="96" height="96" viewBox="0 0 96 96" enable-background="new 0 0 52 52" xml:space="preserve" inkscape:version="0.91 r13725" sodipodi:docname="linux.svg"><metadata id="metadata9"><rdf:RDF><cc:Work rdf:about=""><dc:format>image/svg+xml</dc:format><dc:type rdf:resource="http://purl.org/dc/dcmitype/StillImage" /><dc:title></dc:title></cc:Work></rdf:RDF></metadata><defs id="defs7" /><sodipodi:namedview pagecolor="#ffffff" bordercolor="#666666" borderopacity="1" objecttolerance="10" gridtolerance="10" guidetolerance="10" inkscape:pageopacity="0" inkscape:pageshadow="2" inkscape:window-width="1297" inkscape:window-height="852" id="namedview5" showgrid="false" inkscape:zoom="2.2692308" inkscape:cx="-54.58458" inkscape:cy="-10.470649" inkscape:window-x="0" inkscape:window-y="0" inkscape:window-maximized="0" inkscape:current-layer="Capa_1" /><path d="m 76.556201,69.772512 c -0.90024,-1.696208 -1.96037,-1.84393 -1.96037,0.07473 0,1.98644 1.202638,3.387201 3.673957,4.763632 0.783801,0.43448 1.830027,0.705595 1.856097,1.809172 0.02607,0.950642 -0.816821,1.414665 -1.567602,1.671877 -4.268325,1.470278 -8.058724,3.719144 -11.755275,6.312116 -2.721579,1.909973 -5.755982,0.457073 -5.830713,-2.589496 -0.114703,-4.562035 0.225929,-9.131019 -0.557871,-13.668722 -0.1512,-0.863746 -0.08168,-1.981227 1.035797,-2.281886 1.014945,-0.276329 1.359053,0.698643 1.758773,1.369479 1.36079,2.295789 3.385465,2.82064 5.773363,2.082025 3.29683,-1.014944 6.930815,-6.2426 6.524143,-9.69758 -0.761208,-6.475479 -2.688559,-12.662465 -7.104608,-17.551227 -1.256515,-1.390335 -2.446988,-2.900585 -3.409794,-4.50816 -0.272854,-0.457071 -0.50921,-0.924571 -0.755995,-1.390333 -1.195686,-2.221059 -2.407015,-5.413613 -2.712889,-7.659002 -0.302397,-1.767463 -0.258949,-7.808465 -1.352099,-11.140052 -1.044489,-2.96315 -3.017024,-5.889804 -5.828976,-7.4156953 -2.005557,-1.089674 -4.358697,-1.845669 -6.645797,-1.941254 -1.280845,-0.05387 -2.66249,0.07126 -3.910315,0.382342 -4.502944,1.119218 -7.302729,4.7723213 -7.839747,10.4257673 -0.152935,1.61105 -0.154674,3.265548 0.04171,4.867907 0.910668,7.516495 0.123392,14.243973 -5.484869,20.298879 -3.906839,4.217925 -4.753204,10.462263 -7.090703,15.742057 -0.844629,1.909971 -0.749043,4.167527 2.598186,3.879033 1.05144,-0.09211 1.866523,0.773373 2.544312,1.529367 3.611393,4.044133 6.56759,8.540126 8.936371,13.401082 0.846367,1.739656 1.43552,3.745213 -0.03129,5.477917 -1.367741,1.619739 -3.345492,1.40945 -5.12512,1.020156 -4.565505,-0.994084 -9.092781,-2.148062 -13.635697,-3.249902 -2.022936,-0.490092 -2.667703,-1.649283 -1.765724,-3.611392 0.524851,-1.138337 0.762945,-2.363569 0.196384,-3.548827 -1.277369,-2.664229 -0.446645,-3.875558 2.460892,-4.237045 1.379907,-0.172053 2.485221,-0.683002 3.103921,-1.744869 0.964543,-1.659711 -0.328467,-1.95342 -1.955158,-0.933262 -1.145287,0.71776 -2.400063,1.023635 -3.785184,1.148764 -2.005557,0.180743 -2.650325,1.588456 -2.267983,3.540138 0.391032,1.979488 0.736878,3.892936 -0.02433,5.973222 -1.169618,3.176915 -0.385817,4.539442 2.978791,5.248512 1.701421,0.358011 16.11571,4.143196 16.386825,4.259636 2.558215,1.114006 7.977042,-6.00103 9.958267,-6.00103 0.14251,0 0.28502,0 0.425791,0 3.578373,0 7.446977,1.160929 10.860247,1.136599 1.29301,-0.01046 2.290574,1.094888 3.216885,2.045528 3.180389,3.244693 7.035091,3.72262 10.503974,0.762948 2.417444,-2.061171 4.999988,-3.66527 7.891884,-4.989564 0.13382,-0.06083 0.267639,-0.106012 0.39972,-0.151198 0.222455,-0.07646 1.71185,-1.016682 3.062211,-2.380947 1.564127,-1.579768 2.155018,-3.050046 0.549183,-4.077155 -1.840454,-1.178307 -3.333327,-2.558214 -4.339581,-4.454282 z M 41.950786,77.678299 C 41.50588,77.480176 38.794729,76.70159 39.712349,75.611915 41.27995,73.748868 40.741195,72.026591 39.117981,70.5007 c -1.120957,-1.054917 -3.953762,-3.527974 -5.861996,-5.724701 -1.25999,-1.449423 -2.619042,-4.294395 -2.970101,-6.181773 -0.677788,-3.65484 -0.173792,-7.864077 -0.173792,-7.864077 0.06778,-0.413625 0.212025,-0.610009 0.37539,-0.688216 0.406673,-0.192908 0.337156,1.727491 0.469237,3.642676 0.01391,0.192909 0.03129,0.38408 0.05214,0.571775 0.218977,1.906495 1.077508,1.828288 1.600621,-0.01912 0.801181,-2.832807 1.960371,-5.557861 3.432388,-8.269012 1.192211,-2.200205 0.877648,-5.274581 2.295789,-7.733733 0.830724,-1.437258 1.346886,-1.918662 2.485222,-0.387556 1.684042,2.262768 3.651364,2.201941 5.828975,0.674311 1.581505,-1.107054 3.248168,-2.085501 4.859218,-3.150844 0.634341,-0.415363 1.7692,-0.773374 1.173095,-1.74487 -0.535279,-0.865482 -1.468541,-0.205074 -2.188038,0.118179 -1.261728,0.568299 -2.467843,1.324293 -3.884247,1.77789 -1.828289,0.58394 -1.986439,-0.243309 -0.19986,-0.947165 1.981226,-0.780326 3.809516,-1.499823 5.630853,-2.234962 0.648243,-0.262426 1.567602,-0.669098 1.141812,-1.470279 -0.486617,-0.915882 -1.211329,-0.08864 -1.803959,0.194646 -2.592973,1.232184 -5.272842,2.134163 -8.18733,2.099405 -1.840455,-0.02433 -3.284664,-0.997564 -3.745212,-2.61209 -0.448383,-1.576291 1.418142,-1.904758 2.314906,-2.780669 0.321515,-0.314562 0.64303,-0.592628 0.964545,-0.823772 0.570036,-0.408411 1.089675,-0.710807 1.080984,-0.855054 -0.0087,-0.147725 0,-0.258951 0,-0.258951 0.151199,-1.138336 0.114703,-1.972536 -0.02434,-2.584283 -0.319777,-1.399024 -3.051783,-1.929089 -3.898149,-0.886339 -0.740354,0.912407 -0.740354,2.276672 -0.740354,2.276672 0.03997,0.521376 -0.0869,0.799443 -0.274591,0.941952 -0.451858,0.338894 -1.049701,-1.584981 -0.470975,-3.415008 0.639554,-2.01946 1.772675,-2.334023 3.011811,-2.334023 4.542917,-0.0017 4.155362,6.299952 4.011113,6.421605 -0.01563,0.0139 -0.02955,0.02086 -0.04171,0.02955 -0.02433,0.0139 0.451859,0.156412 0.964545,0.497044 0.514423,0.34237 1.039274,-0.02085 1.112267,-0.948903 0.04345,-0.561347 0.06256,-1.133122 0.102541,-1.684043 0.03302,-3.691336 2.118523,-4.527275 3.694814,-4.315248 4.65588,0.623912 4.08063,6.299952 3.936383,6.421605 -0.507473,0.422314 -0.856794,0.571776 -1.096626,0.570037 -0.695167,-0.0035 -0.453596,-1.272156 -0.403197,-1.626691 0.03302,-0.225928 0.05388,-0.436216 0.07299,-0.643029 0.0017,-0.389293 -0.01216,-0.795967 -0.06083,-1.199163 -0.08168,-0.656933 -0.458811,-1.538057 -0.862007,-1.810911 -0.403198,-0.272853 -2.257556,-0.505733 -3.114348,0.65172 -0.856793,1.157453 -0.842891,3.100445 -0.769898,3.903363 0.05039,0.547443 0.184219,1.065343 0.549182,1.3017 0.762946,0.493568 1.584981,0.950641 2.446987,1.223494 1.729229,0.549181 2.533886,1.484181 2.047268,3.397629 -0.389293,1.531105 -0.02955,3.003121 0.771636,4.391718 2.711151,4.721921 5.768148,13.315924 7.092442,19.42818 0.406671,1.876951 1.049701,2.992695 1.437257,2.321857 0.387556,-0.670835 0.8846,-2.813688 0.981924,-4.73061 0.114702,-2.241914 -0.02434,-5.213754 -1.127909,-7.780658 -0.757732,-1.763986 -0.530064,-2.042053 0.554395,-0.45881 1.220019,1.779628 2.365307,4.65762 1.993392,9.016317 -0.163364,1.913446 0.08168,4.040658 0.868959,4.794914 0.787276,0.754257 0.173792,0.649982 -1.445948,0.849843 -1.619739,0.199859 -2.615565,1.678827 -2.73722,2.16892 -0.09211,0.373652 -0.238095,0.641292 -0.448383,0.769897 -3.9051,2.35314 -3.378511,5.813335 -3.076114,9.367376 0.09038,0.981924 -2.1359,2.467844 -2.480008,2.825855 -4.18143,4.31525 -9.004151,5.09905 -14.435144,2.692033 z m 1.220019,-54.4142 c 0.469238,0.981923 0.04171,1.127909 -0.363225,0.203336 -0.404935,-0.924571 -0.107751,-1.18526 0.363225,-0.203336 z m 9.23877,-0.429266 c -0.583941,-0.799442 -0.192909,-1.2009 0.49183,-0.361486 0.683002,0.837676 0.09211,1.159191 -0.49183,0.361486 z" id="path3" inkscape:connector-curvature="0" /></svg>