<?xml version="1.0" encoding="UTF-8" standalone="no"?>
<!-- Generator: Adobe Illustrator 15.1.0, SVG Export Plug-In . SVG Version: 6.00 Build 0)  -->

<svg xmlns:dc="http://purl.org/dc/elements/1.1/" xmlns:cc="http://creativecommons.org/ns#" xmlns:rdf="http://www.w3.org/1999/02/22-rdf-syntax-ns#" xmlns:svg="http://www.w3.org/2000/svg" xmlns="http://www.w3.org/2000/svg" xmlns:sodipodi="http://sodipodi.sourceforge.net/DTD/sodipodi-0.dtd" xmlns:inkscape="http://www.inkscape.org/namespaces/inkscape" version="1.0" id="Layer_1" x="0px" y="0px" width="96" height="96" viewBox="0 0 96 96" enable-background="new 0 0 792 612" xml:space="preserve" inkscape:version="0.91 r13725" sodipodi:docname="microcontroller.svg"><metadata id="metadata49"><rdf:RDF><cc:Work rdf:about=""><dc:format>image/svg+xml</dc:format><dc:type rdf:resource="http://purl.org/dc/dcmitype/StillImage" /><dc:title></dc:title></cc:Work></rdf:RDF></metadata><defs id="defs47" /><sodipodi:namedview pagecolor="#ffffff" bordercolor="#666666" borderopacity="1" objecttolerance="10" gridtolerance="10" guidetolerance="10" inkscape:pageopacity="0" inkscape:pageshadow="2" inkscape:window-width="1454" inkscape:window-height="818" id="namedview45" showgrid="false" inkscape:zoom="0.77124183" inkscape:cx="202.0521" inkscape:cy="317.26704" inkscape:window-x="313" inkscape:window-y="57" inkscape:window-maximized="0" inkscape:current-layer="Layer_1" /><style id="style3489" type="text/css"><![CDATA[
	.st0{fill:#EBEBEB;}
	.st1{fill:#8ACF17;}
	.st2{fill:#FFFFFF;}
	.st3{fill:#63A814;}
]]></style><g transform="matrix(1.3718362,0,0,1.3718362,4.1012416,4.1012416)" id="g3"><path inkscape:connector-curvature="0" id="path5" d="m 44.282,9.785 c 0.48,0 0.871,-0.389 0.871,-0.869 l 0,-5.203 c 0,-0.48 -0.391,-0.871 -0.871,-0.871 -0.479,0 -0.869,0.391 -0.869,0.871 l 0,5.203 c 0,0.48 0.391,0.869 0.869,0.869 z" /><path inkscape:connector-curvature="0" id="path7" d="m 39.544,9.785 c 0.481,0 0.872,-0.389 0.872,-0.869 l 0,-5.203 c 0,-0.48 -0.391,-0.871 -0.872,-0.871 -0.478,0 -0.868,0.391 -0.868,0.871 l 0,5.203 c 0,0.48 0.39,0.869 0.868,0.869 z" /><path inkscape:connector-curvature="0" id="path9" d="m 34.719,9.785 c 0.479,0 0.867,-0.389 0.867,-0.869 l 0,-5.203 c 0,-0.48 -0.389,-0.871 -0.867,-0.871 -0.48,0 -0.871,0.391 -0.871,0.871 l 0,5.203 c 0,0.48 0.39,0.869 0.871,0.869 z" /><path inkscape:connector-curvature="0" id="path11" d="m 29.98,9.785 c 0.479,0 0.869,-0.389 0.869,-0.869 l 0,-5.203 c 0,-0.48 -0.391,-0.871 -0.869,-0.871 -0.48,0 -0.87,0.391 -0.87,0.871 l 0,5.203 c 0,0.48 0.39,0.869 0.87,0.869 z" /><path inkscape:connector-curvature="0" id="path13" d="m 25.609,9.785 c 0.477,0 0.868,-0.389 0.868,-0.869 l 0,-5.203 c 0,-0.48 -0.391,-0.871 -0.868,-0.871 -0.482,0 -0.871,0.391 -0.871,0.871 l 0,5.203 c 0,0.48 0.389,0.869 0.871,0.869 z" /><path inkscape:connector-curvature="0" id="path15" d="m 20.87,9.785 c 0.479,0 0.868,-0.389 0.868,-0.869 l 0,-5.203 c 0,-0.48 -0.389,-0.871 -0.868,-0.871 -0.48,0 -0.87,0.39 -0.87,0.871 l 0,5.203 c 0,0.48 0.39,0.869 0.87,0.869 z" /><path inkscape:connector-curvature="0" id="path17" d="m 8.912,18.761 -5.201,0 c -0.48,0 -0.869,0.391 -0.869,0.869 0,0.478 0.389,0.869 0.869,0.869 l 5.201,0 c 0.482,0 0.871,-0.391 0.871,-0.869 0,-0.478 -0.389,-0.869 -0.871,-0.869 z" /><path inkscape:connector-curvature="0" id="path19" d="m 8.912,23.5 -5.201,0 c -0.48,0 -0.869,0.389 -0.869,0.868 0,0.48 0.389,0.869 0.869,0.869 l 5.201,0 c 0.482,0 0.871,-0.389 0.871,-0.869 0,-0.48 -0.389,-0.868 -0.871,-0.868 z" /><path inkscape:connector-curvature="0" id="path21" d="m 8.912,28.328 -5.201,0 c -0.48,0 -0.869,0.389 -0.869,0.871 0,0.479 0.389,0.868 0.869,0.868 l 5.201,0 c 0.482,0 0.871,-0.389 0.871,-0.868 0,-0.482 -0.389,-0.871 -0.871,-0.871 z" /><path inkscape:connector-curvature="0" id="path23" d="m 8.912,33.064 -5.201,0 c -0.48,0 -0.869,0.391 -0.869,0.869 0,0.478 0.389,0.869 0.869,0.869 l 5.201,0 c 0.482,0 0.871,-0.391 0.871,-0.869 0,-0.478 -0.389,-0.869 -0.871,-0.869 z" /><path inkscape:connector-curvature="0" id="path25" d="m 8.912,37.434 -5.201,0 c -0.48,0 -0.869,0.391 -0.869,0.869 0,0.482 0.389,0.873 0.869,0.873 l 5.201,0 c 0.482,0 0.871,-0.391 0.871,-0.873 0,-0.479 -0.389,-0.869 -0.871,-0.869 z" /><path inkscape:connector-curvature="0" id="path27" d="m 8.912,42.174 -5.201,0 c -0.48,0 -0.869,0.388 -0.869,0.869 0,0.479 0.389,0.87 0.869,0.87 l 5.201,0 c 0.482,0 0.871,-0.391 0.871,-0.87 0,-0.481 -0.389,-0.869 -0.871,-0.869 z" /><path inkscape:connector-curvature="0" id="path29" d="m 44.282,54.217 c -0.479,0 -0.869,0.391 -0.869,0.869 l 0,5.203 c 0,0.481 0.391,0.869 0.869,0.869 0.48,0 0.871,-0.388 0.871,-0.869 l 0,-5.203 c 0,-0.479 -0.39,-0.869 -0.871,-0.869 z" /><path inkscape:connector-curvature="0" id="path31" d="m 39.544,54.217 c -0.478,0 -0.868,0.391 -0.868,0.869 l 0,5.203 c 0,0.481 0.391,0.869 0.868,0.869 0.481,0 0.872,-0.388 0.872,-0.869 l 0,-5.203 c 0,-0.479 -0.391,-0.869 -0.872,-0.869 z" /><path inkscape:connector-curvature="0" id="path33" d="m 34.719,54.217 c -0.48,0 -0.871,0.391 -0.871,0.869 l 0,5.203 c 0,0.481 0.391,0.869 0.871,0.869 0.479,0 0.867,-0.388 0.867,-0.869 l 0,-5.203 c 0,-0.479 -0.389,-0.869 -0.867,-0.869 z" /><path inkscape:connector-curvature="0" id="path35" d="m 29.98,54.217 c -0.48,0 -0.87,0.391 -0.87,0.869 l 0,5.203 c 0,0.481 0.389,0.869 0.87,0.869 0.479,0 0.869,-0.388 0.869,-0.869 l 0,-5.203 c 0,-0.479 -0.391,-0.869 -0.869,-0.869 z" /><path inkscape:connector-curvature="0" id="path37" d="m 25.609,54.217 c -0.482,0 -0.871,0.391 -0.871,0.869 l 0,5.203 c 0,0.481 0.389,0.869 0.871,0.869 0.477,0 0.868,-0.388 0.868,-0.869 l 0,-5.203 c 0,-0.479 -0.391,-0.869 -0.868,-0.869 z" /><path inkscape:connector-curvature="0" id="path39" d="m 20.87,54.217 c -0.48,0 -0.871,0.391 -0.871,0.869 l 0,5.203 c 0,0.481 0.391,0.869 0.871,0.869 0.479,0 0.868,-0.388 0.868,-0.869 l 0,-5.203 c 0,-0.479 -0.389,-0.869 -0.868,-0.869 z" /><path inkscape:connector-curvature="0" id="path41" d="m 46.699,12.062 -28.248,0 c -2.964,0 -5.378,2.416 -5.378,5.38 l 0,28.246 c 0,2.969 2.414,5.385 5.378,5.385 l 28.248,0 c 2.965,0 5.381,-2.416 5.381,-5.385 l 0,-28.246 c 0,-2.964 -2.416,-5.38 -5.381,-5.38 z m -25.516,8.584 c -0.948,0 -1.716,-0.768 -1.716,-1.714 0,-0.946 0.768,-1.716 1.716,-1.716 0.944,0 1.714,0.77 1.714,1.716 0,0.946 -0.77,1.714 -1.714,1.714 z m 20.48,19.445 -17.983,0 0,-18.151 17.983,0 0,18.151 z" /><path inkscape:connector-curvature="0" id="path43" d="m 55.083,20.499 5.204,0 c 0.48,0 0.871,-0.391 0.871,-0.869 0,-0.478 -0.391,-0.869 -0.871,-0.869 l -5.204,0 c -0.479,0 -0.869,0.391 -0.869,0.869 0,0.478 0.39,0.869 0.869,0.869 z" /><path inkscape:connector-curvature="0" id="path45" d="m 60.287,23.5 -5.204,0 c -0.479,0 -0.869,0.389 -0.869,0.868 0,0.48 0.391,0.869 0.869,0.869 l 5.204,0 c 0.48,0 0.871,-0.389 0.871,-0.869 0,-0.48 -0.39,-0.868 -0.871,-0.868 z" /><path inkscape:connector-curvature="0" id="path47" d="m 60.287,28.328 -5.204,0 c -0.479,0 -0.869,0.389 -0.869,0.871 0,0.479 0.391,0.868 0.869,0.868 l 5.204,0 c 0.48,0 0.871,-0.389 0.871,-0.868 0,-0.482 -0.39,-0.871 -0.871,-0.871 z" /><path inkscape:connector-curvature="0" id="path49" d="m 60.287,33.064 -5.204,0 c -0.479,0 -0.869,0.391 -0.869,0.869 0,0.478 0.391,0.869 0.869,0.869 l 5.204,0 c 0.48,0 0.871,-0.391 0.871,-0.869 0,-0.478 -0.39,-0.869 -0.871,-0.869 z" /><path inkscape:connector-curvature="0" id="path51" d="m 60.287,37.434 -5.204,0 c -0.479,0 -0.869,0.391 -0.869,0.869 0,0.482 0.391,0.873 0.869,0.873 l 5.204,0 c 0.48,0 0.871,-0.391 0.871,-0.873 0,-0.479 -0.39,-0.869 -0.871,-0.869 z" /><path inkscape:connector-curvature="0" id="path53" d="m 60.287,42.174 -5.204,0 c -0.479,0 -0.869,0.388 -0.869,0.869 0,0.479 0.391,0.87 0.869,0.87 l 5.204,0 c 0.48,0 0.871,-0.391 0.871,-0.87 0,-0.481 -0.39,-0.869 -0.871,-0.869 z" /></g></svg>