<?xml version="1.0" encoding="UTF-8" standalone="no"?>
<!-- Generator: Adobe Illustrator 15.1.0, SVG Export Plug-In . SVG Version: 6.00 Build 0)  -->

<svg xmlns:osb="http://www.openswatchbook.org/uri/2009/osb" xmlns:dc="http://purl.org/dc/elements/1.1/" xmlns:cc="http://creativecommons.org/ns#" xmlns:rdf="http://www.w3.org/1999/02/22-rdf-syntax-ns#" xmlns:svg="http://www.w3.org/2000/svg" xmlns="http://www.w3.org/2000/svg" xmlns:xlink="http://www.w3.org/1999/xlink" xmlns:sodipodi="http://sodipodi.sourceforge.net/DTD/sodipodi-0.dtd" xmlns:inkscape="http://www.inkscape.org/namespaces/inkscape" version="1.0" id="Layer_1" x="0px" y="0px" width="96" height="96" viewBox="0 0 96 96" enable-background="new 0 0 792 612" xml:space="preserve" inkscape:version="0.91 r13725" sodipodi:docname="microchip.svg"><metadata id="metadata49"><rdf:RDF><cc:Work rdf:about=""><dc:format>image/svg+xml</dc:format><dc:type rdf:resource="http://purl.org/dc/dcmitype/StillImage" /><dc:title></dc:title></cc:Work></rdf:RDF></metadata><defs id="defs47"><linearGradient osb:paint="solid" id="linearGradient3942"><stop id="stop3944" offset="0" style="stop-color:#ffffff;stop-opacity:1;" /></linearGradient><linearGradient inkscape:collect="always" xlink:href="#linearGradient6114" id="linearGradient6112" x1="346.11499" y1="520.72614" x2="346.11499" y2="567.32123" gradientUnits="userSpaceOnUse" /><radialGradient inkscape:collect="always" xlink:href="#linearGradient6030" id="radialGradient6106" gradientUnits="userSpaceOnUse" gradientTransform="matrix(4.39697,-0.781364,0.273452,1.5388,-1379.4,111.904)" cx="363.84866" cy="494.10422" fx="363.84866" fy="494.10422" r="88.392456" /><linearGradient inkscape:collect="always" xlink:href="#linearGradient6056" id="linearGradient6054" x1="331.34576" y1="452.02783" x2="331.34576" y2="574.2973" gradientUnits="userSpaceOnUse" /><linearGradient id="linearGradient6030"><stop style="stop-color:#ffffff;stop-opacity:1;" offset="0" id="stop6032" /><stop id="stop6038" offset="0.5" style="stop-color:#000000;stop-opacity:1;" /><stop style="stop-color:#ffffff;stop-opacity:1;" offset="0.51028222" id="stop6040" /><stop style="stop-color:#000000;stop-opacity:1;" offset="1" id="stop6034" /></linearGradient><linearGradient id="linearGradient6056"><stop id="stop6062" offset="0" style="stop-color:#ffffff;stop-opacity:1;" /><stop id="stop6064" offset="1" style="stop-color:#838383;stop-opacity:1;" /></linearGradient><linearGradient id="linearGradient6114"><stop style="stop-color:#ffffff;stop-opacity:0;" offset="0" id="stop6116" /><stop style="stop-color:#000000;stop-opacity:0.53846157;" offset="1" id="stop6118" /></linearGradient><radialGradient cx="77.914261" cy="-48.544521" r="146" fx="77.914261" fy="-48.544521" id="radialGradient3870" xlink:href="#linearGradient3798" gradientUnits="userSpaceOnUse" gradientTransform="matrix(1.5089497,0,0,1.3582164,-39.028917,76.957747)" /><linearGradient x1="150" y1="84" x2="299" y2="84" id="linearGradient3798" gradientUnits="userSpaceOnUse"><stop id="stop3800" style="stop-color:#dddce9;stop-opacity:1" offset="0" /><stop id="stop3802" style="stop-color:#5664a3;stop-opacity:1" offset="0.37" /><stop id="stop3804" style="stop-color:#000000;stop-opacity:1" offset="1" /></linearGradient><linearGradient id="linearGradient5463"><stop style="stop-color:#fec070;stop-opacity:1;" offset="0" id="stop5465" /><stop style="stop-color:#fec070;stop-opacity:0;" offset="1" id="stop5467" /></linearGradient><linearGradient id="linearGradient5471"><stop style="stop-color:#fec878;stop-opacity:1" offset="0" id="stop5473" /><stop style="stop-color:#ffa150;stop-opacity:1;" offset="1" id="stop5475" /></linearGradient><clipPath clipPathUnits="userSpaceOnUse" id="clipPath18"><path inkscape:connector-curvature="0" d="M 0,501.602 0,0 l 1863.85,0 0,501.602 -1863.85,0 z" id="path20" /></clipPath><clipPath clipPathUnits="userSpaceOnUse" id="clipPath18-9"><path inkscape:connector-curvature="0" d="M 0,501.602 0,0 l 1863.85,0 0,501.602 -1863.85,0 z" id="path20-0" /></clipPath><clipPath clipPathUnits="userSpaceOnUse" id="clipPath18-9-1"><path inkscape:connector-curvature="0" d="M 0,501.602 0,0 l 1863.85,0 0,501.602 -1863.85,0 z" id="path20-0-9" /></clipPath><clipPath clipPathUnits="userSpaceOnUse" id="clipPath18-9-1-5"><path inkscape:connector-curvature="0" d="M 0,501.602 0,0 l 1863.85,0 0,501.602 -1863.85,0 z" id="path20-0-9-8" /></clipPath><linearGradient id="linearGradient4689"><stop id="stop4691" offset="0" style="stop-color:#5a9fd4;stop-opacity:1;" /><stop id="stop4693" offset="1" style="stop-color:#306998;stop-opacity:1;" /></linearGradient><linearGradient id="linearGradient4671"><stop id="stop4673" offset="0" style="stop-color:#ffd43b;stop-opacity:1;" /><stop id="stop4675" offset="1" style="stop-color:#ffe873;stop-opacity:1" /></linearGradient><linearGradient id="c"><stop id="stop4686" stop-opacity=".498" stop-color="#b8b8b8" offset="0" /><stop id="stop4688" stop-opacity="0" stop-color="#7f7f7f" offset="1" /></linearGradient><linearGradient id="linearGradient4700" gradientTransform="matrix(0.562541,0,0,0.567972,-9.399749,304.46299)" gradientUnits="userSpaceOnUse" xlink:href="#linearGradient4671" y2="137.273" x2="112.031" y1="192.352" x1="150.961" /><linearGradient id="linearGradient4702" gradientTransform="matrix(0.562541,0,0,0.567972,-9.399749,304.46299)" gradientUnits="userSpaceOnUse" xlink:href="#linearGradient4689" y2="114.398" x2="135.665" y1="20.604" x1="26.649" /><radialGradient id="radialGradient4704" gradientTransform="matrix(2.382716e-8,-0.296405,1.43676,4.683673e-7,-128.544,150.5202)" gradientUnits="userSpaceOnUse" xlink:href="#c" fy="132.286" fx="61.519" r="29.037" cy="132.286" cx="61.519" /><linearGradient gradientTransform="matrix(0.562541,0,0,0.567972,-9.399749,304.46299)" gradientUnits="userSpaceOnUse" xlink:href="#linearGradient4689" id="d" y2="114.398" x2="135.665" y1="20.604" x1="26.649" /><linearGradient gradientTransform="matrix(0.562541,0,0,0.567972,-9.399749,304.46299)" gradientUnits="userSpaceOnUse" xlink:href="#linearGradient4671" id="e" y2="137.273" x2="112.031" y1="192.352" x1="150.961" /><radialGradient gradientTransform="matrix(1.5089497,0,0,1.3582164,-39.028917,76.957747)" gradientUnits="userSpaceOnUse" xlink:href="#linearGradient3798" id="radialGradient3870-0" fy="-48.544521" fx="77.914261" r="146" cy="-48.544521" cx="77.914261" /><radialGradient gradientTransform="matrix(1.5089497,0,0,1.3582164,-39.028917,76.957747)" gradientUnits="userSpaceOnUse" xlink:href="#linearGradient3798" id="radialGradient3870-4" fy="-48.544521" fx="77.914261" r="146" cy="-48.544521" cx="77.914261" /><radialGradient gradientTransform="matrix(1.5089497,0,0,1.3582164,-39.028917,76.957747)" gradientUnits="userSpaceOnUse" xlink:href="#linearGradient3798" id="radialGradient3870-7" fy="-48.544521" fx="77.914261" r="146" cy="-48.544521" cx="77.914261" /><radialGradient gradientTransform="matrix(1.5089497,0,0,1.3582164,-39.028917,76.957747)" gradientUnits="userSpaceOnUse" xlink:href="#linearGradient3798" id="radialGradient3870-2" fy="-48.544521" fx="77.914261" r="146" cy="-48.544521" cx="77.914261" /></defs><sodipodi:namedview pagecolor="#ffffff" bordercolor="#666666" borderopacity="1" objecttolerance="10" gridtolerance="10" guidetolerance="10" inkscape:pageopacity="0" inkscape:pageshadow="2" inkscape:window-width="1745" inkscape:window-height="1018" id="namedview45" showgrid="false" inkscape:zoom="0.54535033" inkscape:cx="196.76321" inkscape:cy="-304.72199" inkscape:window-x="0" inkscape:window-y="0" inkscape:window-maximized="0" inkscape:current-layer="g5508" /><style id="style3489" type="text/css"><![CDATA[
	.st0{fill:#EBEBEB;}
	.st1{fill:#8ACF17;}
	.st2{fill:#FFFFFF;}
	.st3{fill:#63A814;}
]]></style><g id="g5508" transform="matrix(0.32647839,0,0,0.32647839,-41.807808,39.83804)"><g id="layer1" transform="matrix(0.34578004,0,0,0.34578004,-51.354573,141.93707)"><g id="g7496" transform="translate(17.719116,17.733261)"><path id="path7491" style="fill:#231f20;fill-rule:evenodd;stroke:none" d="m 594.10036,-219.41667 c -5.71128,0.17917 -10.80252,3.55138 -12.15625,9.75 l -9.9375,69.0625 21.59375,0 5.78125,-47.46875 21.71875,38.21875 c 6.5716,8.31508 20.78777,7.51042 25.75,0 l 21.59375,-37.40625 5.90625,46.65625 22.375,0 -10.84375,-69.0625 c -8.31512,-13.27736 -20.8034,-9.90754 -27.375,-2.53125 l -24.125,41.5625 -25.90625,-41.5625 c -3.83485,-5.02929 -9.33563,-7.37684 -14.375,-7.21875 z" inkscape:connector-curvature="0" /><path id="path7489" style="fill:#231f20;fill-rule:evenodd;stroke:none" transform="translate(572.00661,-572.04167)" d="m 355.125,371.5 c -8.31514,0 -17.4375,6.70833 -17.4375,14.21875 l 0,31.5 c 10e-6,7.51041 6.72395,14.21875 15.84375,14.21875 l 24.9375,0 23.34375,0 c 7.37631,10e-6 16.625,-5.90366 16.625,-14.21875 l 0,-29.90625 c 0,-7.51041 -8.31642,-15.8125 -18.375,-15.8125 l -21.59375,0 -23.34375,0 z m 10.875,15.8125 12.46875,0 13.28125,0 c 4.15752,10e-6 6.71875,3.36586 6.71875,6.71875 l 0,16.625 c -10e-6,4.02345 -2.55339,4.96875 -5.90625,4.96875 l -14.09375,0 -15.03125,0 c -3.35284,0 -5.75,-0.94531 -5.75,-4.96875 l 0,-16.625 c -10e-6,-4.15755 4.15493,-6.71875 8.3125,-6.71875 z" inkscape:connector-curvature="0" /><path id="path7487" style="fill:#231f20;fill-rule:evenodd;stroke:none" d="m 755.75661,-199.72917 c -9.11979,-1e-5 -18.25,8.3177 -18.25,14.21875 l 0,32.3125 c 0,4.29163 6.69271,12.59375 15.8125,12.59375 l 50.71875,0 c 5.90101,0.80467 10.03125,-3.34895 10.03125,-9.25 l 0,-6.5625 -50.8125,0 c -4.96224,0.80466 -7.5,-3.35027 -7.5,-8.3125 l 0,-10.0625 c 0,-4.15756 3.34244,-9.125 7.5,-9.125 l 49.875,0 0,-8.3125 c -10e-6,-4.96223 -3.19274,-7.5 -9.09375,-7.5 l -48.28125,0 z" inkscape:connector-curvature="0" /><path id="path7485" style="fill:#231f20;fill-rule:evenodd;stroke:none" transform="translate(572.00661,-572.04167)" d="m 252,372.3125 0,59.125 17.4375,0 0.9375,-15 19.84375,0 12.46875,0 c 3.35287,0 5.91404,1.59243 6.71875,5.75 l 0,9.25 17.4375,0 0,-14.21875 c 10e-6,-7.51043 -7.53125,-9.09375 -7.53125,-9.09375 0,10e-6 7.53905,-3.35806 8.34375,-9.125 l 0,-14.21875 c -0.80471,-6.57162 -6.60023,-11.52996 -11.5625,-12.46875 l -25.875,0 -38.21875,0 z m 18.375,15 19.84375,0 15.84375,0 c 1.74348,10e-6 4.15625,2.55471 4.15625,4.96875 l 0,4.96875 c -10e-6,2.54816 -1.61589,4.15625 -4.96875,4.15625 l -15.03125,0 -20.78125,0 0.9375,-14.09375 z" inkscape:connector-curvature="0" /><path id="path7483" style="fill:#231f20;fill-rule:evenodd;stroke:none" d="m 1017.8191,-199.72917 c -9.1198,-1e-5 -18.24999,7.513 -18.24999,14.21875 l 0,32.3125 c 0.80459,5.09633 6.55859,12.59375 15.81249,12.59375 l 50.6875,0.8125 c 5.7669,1e-5 9.9375,-4.16145 9.9375,-10.0625 l 0,-5.75 -50.6875,0 c -4.9623,0 -7.5,-3.35028 -7.5,-8.3125 l 0,-10.875 c 0,-4.15756 3.3424,-9.125 7.5,-9.125 l 49.875,0 0,-8.3125 c 0,-4.96223 -3.3581,-7.5 -9.125,-7.5 l -48.25,0 z" inkscape:connector-curvature="0" /><path id="path7481" style="fill:#231f20;fill-rule:evenodd;stroke:none" d="m 1086.0691,-199.72917 0,59.125 19.1875,0 0,-21.71875 35.6563,0 0,21.71875 20,0 0,-59.125 -20,0 0,20.78125 -35.6563,0 0,-20.78125 -19.1875,0 z" inkscape:connector-curvature="0" /><path id="path7479" style="fill:#231f20;fill-rule:evenodd;stroke:none" d="m 706.78786,-198.79167 0,58.1875 19.0625,0 0,-58.1875 -19.0625,0 z" inkscape:connector-curvature="0" /><path id="path7477" style="fill:#231f20;fill-rule:evenodd;stroke:none" d="m 1171.7566,-198.79167 0,58.1875 19.0625,0 0,-58.1875 -19.0625,0 z" inkscape:connector-curvature="0" /><path id="path7475" style="fill:#231f20;fill-rule:evenodd;stroke:none" transform="translate(572.00661,-572.04167)" d="m 631.28125,373.25 0,58.1875 18.375,0 0,-15 19.96875,0 25.75,0 c 5.76689,0 13.28125,-7.52215 13.28125,-14.09375 l 0,-14.21875 c -2e-5,-7.51042 -6.5599,-14.875 -14.875,-14.875 l -24.15625,0 -38.34375,0 z m 17.5625,14.0625 20.78125,0 16.625,0 c 2.54819,10e-6 4.15625,2.55471 4.15625,4.96875 l 0,4.96875 c -1.2e-4,2.54816 -1.5846,5.09375 -4.9375,5.09375 l -15.84375,0 -19.96875,0 -0.8125,-15.03125 z" inkscape:connector-curvature="0" /><path id="path197" style="fill:#ec1b24;fill-rule:evenodd;stroke:none" d="m 909.70709,-322.72269 c 0,0 13.27735,23.33593 28.2982,0 l 29.10286,-42.38019 -85.69922,-137.06512 c 0,0 -13.27736,-18.37366 -29.10287,0 l -29.90753,41.44144 87.30856,138.00387 z m 11.66798,66.52089 c 44.92838,0 85.69923,-16.63021 115.60673,-43.18496 l -102.32937,-160.40102 31.65102,-43.319 c 13.27735,-17.43488 27.35937,0 27.35937,0 l 87.44268,138.0039 c 4.1576,-11.66798 6.5716,-24.9453 7.3763,-37.41799 l -98.97654,-156.24345 c -20.78774,-8.31512 -43.98955,-13.27735 -68.13019,-13.27735 -87.04036,0 -168.04555,66.78905 -168.04555,157.98697 0,14.08202 2.41404,28.16405 5.7669,40.6367 l 49.08593,-67.32553 34.19925,52.43884 c 8.18097,12.47265 0,23.20181 0,23.20181 l -43.31904,59.8151 c 32.72396,32.724 76.57943,49.08598 122.31251,49.08598" inkscape:connector-curvature="0" /></g></g></g></svg>