<?xml version="1.0" encoding="UTF-8" standalone="no"?>
<!-- Generator: Adobe Illustrator 15.1.0, SVG Export Plug-In . SVG Version: 6.00 Build 0)  -->

<svg xmlns:osb="http://www.openswatchbook.org/uri/2009/osb" xmlns:dc="http://purl.org/dc/elements/1.1/" xmlns:cc="http://creativecommons.org/ns#" xmlns:rdf="http://www.w3.org/1999/02/22-rdf-syntax-ns#" xmlns:svg="http://www.w3.org/2000/svg" xmlns="http://www.w3.org/2000/svg" xmlns:xlink="http://www.w3.org/1999/xlink" xmlns:sodipodi="http://sodipodi.sourceforge.net/DTD/sodipodi-0.dtd" xmlns:inkscape="http://www.inkscape.org/namespaces/inkscape" version="1.0" id="Layer_1" x="0px" y="0px" width="96" height="96" viewBox="0 0 96 96" enable-background="new 0 0 792 612" xml:space="preserve" inkscape:version="0.91 r13725" sodipodi:docname="mongodb.svg"><metadata id="metadata49"><rdf:RDF><cc:Work rdf:about=""><dc:format>image/svg+xml</dc:format><dc:type rdf:resource="http://purl.org/dc/dcmitype/StillImage" /><dc:title></dc:title></cc:Work></rdf:RDF></metadata><defs id="defs47"><linearGradient osb:paint="solid" id="linearGradient3942"><stop id="stop3944" offset="0" style="stop-color:#ffffff;stop-opacity:1;" /></linearGradient><linearGradient inkscape:collect="always" xlink:href="#linearGradient6114" id="linearGradient6112" x1="346.11499" y1="520.72614" x2="346.11499" y2="567.32123" gradientUnits="userSpaceOnUse" /><radialGradient inkscape:collect="always" xlink:href="#linearGradient6030" id="radialGradient6106" gradientUnits="userSpaceOnUse" gradientTransform="matrix(4.39697,-0.781364,0.273452,1.5388,-1379.4,111.904)" cx="363.84866" cy="494.10422" fx="363.84866" fy="494.10422" r="88.392456" /><linearGradient inkscape:collect="always" xlink:href="#linearGradient6056" id="linearGradient6054" x1="331.34576" y1="452.02783" x2="331.34576" y2="574.2973" gradientUnits="userSpaceOnUse" /><linearGradient id="linearGradient6030"><stop style="stop-color:#ffffff;stop-opacity:1;" offset="0" id="stop6032" /><stop id="stop6038" offset="0.5" style="stop-color:#000000;stop-opacity:1;" /><stop style="stop-color:#ffffff;stop-opacity:1;" offset="0.51028222" id="stop6040" /><stop style="stop-color:#000000;stop-opacity:1;" offset="1" id="stop6034" /></linearGradient><linearGradient id="linearGradient6056"><stop id="stop6062" offset="0" style="stop-color:#ffffff;stop-opacity:1;" /><stop id="stop6064" offset="1" style="stop-color:#838383;stop-opacity:1;" /></linearGradient><linearGradient id="linearGradient6114"><stop style="stop-color:#ffffff;stop-opacity:0;" offset="0" id="stop6116" /><stop style="stop-color:#000000;stop-opacity:0.53846157;" offset="1" id="stop6118" /></linearGradient><radialGradient cx="77.914261" cy="-48.544521" r="146" fx="77.914261" fy="-48.544521" id="radialGradient3870" xlink:href="#linearGradient3798" gradientUnits="userSpaceOnUse" gradientTransform="matrix(1.5089497,0,0,1.3582164,-39.028917,76.957747)" /><linearGradient x1="150" y1="84" x2="299" y2="84" id="linearGradient3798" gradientUnits="userSpaceOnUse"><stop id="stop3800" style="stop-color:#dddce9;stop-opacity:1" offset="0" /><stop id="stop3802" style="stop-color:#5664a3;stop-opacity:1" offset="0.37" /><stop id="stop3804" style="stop-color:#000000;stop-opacity:1" offset="1" /></linearGradient><linearGradient id="linearGradient5463"><stop style="stop-color:#fec070;stop-opacity:1;" offset="0" id="stop5465" /><stop style="stop-color:#fec070;stop-opacity:0;" offset="1" id="stop5467" /></linearGradient><linearGradient id="linearGradient5471"><stop style="stop-color:#fec878;stop-opacity:1" offset="0" id="stop5473" /><stop style="stop-color:#ffa150;stop-opacity:1;" offset="1" id="stop5475" /></linearGradient><clipPath clipPathUnits="userSpaceOnUse" id="clipPath18"><path inkscape:connector-curvature="0" d="M 0,501.602 0,0 l 1863.85,0 0,501.602 -1863.85,0 z" id="path20" /></clipPath><clipPath clipPathUnits="userSpaceOnUse" id="clipPath18-9"><path inkscape:connector-curvature="0" d="M 0,501.602 0,0 l 1863.85,0 0,501.602 -1863.85,0 z" id="path20-0" /></clipPath><clipPath clipPathUnits="userSpaceOnUse" id="clipPath18-9-1"><path inkscape:connector-curvature="0" d="M 0,501.602 0,0 l 1863.85,0 0,501.602 -1863.85,0 z" id="path20-0-9" /></clipPath><clipPath clipPathUnits="userSpaceOnUse" id="clipPath18-9-1-5"><path inkscape:connector-curvature="0" d="M 0,501.602 0,0 l 1863.85,0 0,501.602 -1863.85,0 z" id="path20-0-9-8" /></clipPath><linearGradient id="linearGradient4689"><stop id="stop4691" offset="0" style="stop-color:#5a9fd4;stop-opacity:1;" /><stop id="stop4693" offset="1" style="stop-color:#306998;stop-opacity:1;" /></linearGradient><linearGradient id="linearGradient4671"><stop id="stop4673" offset="0" style="stop-color:#ffd43b;stop-opacity:1;" /><stop id="stop4675" offset="1" style="stop-color:#ffe873;stop-opacity:1" /></linearGradient><linearGradient id="c"><stop id="stop4686" stop-opacity=".498" stop-color="#b8b8b8" offset="0" /><stop id="stop4688" stop-opacity="0" stop-color="#7f7f7f" offset="1" /></linearGradient><linearGradient id="linearGradient4700" gradientTransform="matrix(0.562541,0,0,0.567972,-9.399749,304.46299)" gradientUnits="userSpaceOnUse" xlink:href="#linearGradient4671" y2="137.273" x2="112.031" y1="192.352" x1="150.961" /><linearGradient id="linearGradient4702" gradientTransform="matrix(0.562541,0,0,0.567972,-9.399749,304.46299)" gradientUnits="userSpaceOnUse" xlink:href="#linearGradient4689" y2="114.398" x2="135.665" y1="20.604" x1="26.649" /><radialGradient id="radialGradient4704" gradientTransform="matrix(2.382716e-8,-0.296405,1.43676,4.683673e-7,-128.544,150.5202)" gradientUnits="userSpaceOnUse" xlink:href="#c" fy="132.286" fx="61.519" r="29.037" cy="132.286" cx="61.519" /><linearGradient gradientTransform="matrix(0.562541,0,0,0.567972,-9.399749,304.46299)" gradientUnits="userSpaceOnUse" xlink:href="#linearGradient4689" id="d" y2="114.398" x2="135.665" y1="20.604" x1="26.649" /><linearGradient gradientTransform="matrix(0.562541,0,0,0.567972,-9.399749,304.46299)" gradientUnits="userSpaceOnUse" xlink:href="#linearGradient4671" id="e" y2="137.273" x2="112.031" y1="192.352" x1="150.961" /><radialGradient gradientTransform="matrix(1.5089497,0,0,1.3582164,-39.028917,76.957747)" gradientUnits="userSpaceOnUse" xlink:href="#linearGradient3798" id="radialGradient3870-0" fy="-48.544521" fx="77.914261" r="146" cy="-48.544521" cx="77.914261" /><radialGradient gradientTransform="matrix(1.5089497,0,0,1.3582164,-39.028917,76.957747)" gradientUnits="userSpaceOnUse" xlink:href="#linearGradient3798" id="radialGradient3870-4" fy="-48.544521" fx="77.914261" r="146" cy="-48.544521" cx="77.914261" /><radialGradient gradientTransform="matrix(1.5089497,0,0,1.3582164,-39.028917,76.957747)" gradientUnits="userSpaceOnUse" xlink:href="#linearGradient3798" id="radialGradient3870-7" fy="-48.544521" fx="77.914261" r="146" cy="-48.544521" cx="77.914261" /><radialGradient gradientTransform="matrix(1.5089497,0,0,1.3582164,-39.028917,76.957747)" gradientUnits="userSpaceOnUse" xlink:href="#linearGradient3798" id="radialGradient3870-2" fy="-48.544521" fx="77.914261" r="146" cy="-48.544521" cx="77.914261" /></defs><sodipodi:namedview pagecolor="#ffffff" bordercolor="#666666" borderopacity="1" objecttolerance="10" gridtolerance="10" guidetolerance="10" inkscape:pageopacity="0" inkscape:pageshadow="2" inkscape:window-width="1745" inkscape:window-height="1018" id="namedview45" showgrid="false" inkscape:zoom="1.0907007" inkscape:cx="-325.57853" inkscape:cy="-59.957362" inkscape:window-x="0" inkscape:window-y="0" inkscape:window-maximized="0" inkscape:current-layer="g5508" /><style id="style3489" type="text/css"><![CDATA[
	.st0{fill:#EBEBEB;}
	.st1{fill:#8ACF17;}
	.st2{fill:#FFFFFF;}
	.st3{fill:#63A814;}
]]></style><g id="g5508" transform="matrix(0.32647839,0,0,0.32647839,-41.807808,39.83804)"><path id="path5498" d="m 324.51248,-0.87274353 c 1.07306,0 4.88839,0.1192292 6.67683,0.1192292 3.33842,0 5.72301,-0.1192292 11.92293,-0.1192292 5.24608,0 9.65756,1.4307508 12.87675,4.17302363 3.81534,3.338418 5.84224,7.8691289 5.84224,13.4729029 0,7.988359 -3.69611,12.51907 -7.27299,15.142113 -3.6961,2.742273 -8.34604,4.292253 -15.14211,4.292253 -3.57688,0 -9.7768,-0.119229 -14.90365,-0.119229 l -0.11923,0 c -0.23846,-0.476917 0.47691,-2.265356 0.8346,-2.384585 1.43075,-0.119229 1.78844,-0.238459 2.38459,-0.476917 1.07306,-0.476917 1.31152,-0.953834 1.43075,-2.980731 0.11923,-3.696106 0.11923,-7.988359 0.11923,-12.995987 0,-3.576877 0,-10.4921719 -0.11923,-12.6382989 -0.23846,-1.788438 -0.95384,-2.265355 -2.50382,-2.623043 -0.8346,-0.119229 -1.90766,-0.357688 -3.33842,-0.476917 0.11923,-0.357688 1.07307,-2.02689693 1.31153,-2.38458463 z M 336.4354,31.915296 c 1.31152,0.953834 3.81534,1.430751 5.96146,1.430751 2.8615,0 5.723,-0.476917 8.46528,-2.980731 2.8615,-2.503814 4.76917,-6.438378 4.76917,-12.638299 0,-5.961462 -2.26536,-10.8498599 -6.9153,-13.5921329 -2.62304,-1.669209 -6.08069,-2.265355 -9.89603,-2.265355 -1.19229,0 -2.26535,0 -2.98073,0.357688 -0.23846,0.119229 -0.59614,0.596146 -0.59614,0.834604 -0.11923,1.073063 -0.11923,9.1806509 -0.11923,13.9498209 0,4.888399 0,11.684465 0.11923,12.51907 0.11923,0.715375 0.47691,1.907667 1.19229,2.384584 z m 30.52268,-32.78803953 c 0.59615,0 2.14613,0.1192292 6.19992,0.1192292 3.81534,0 6.9153,-0.1192292 10.61141,-0.1192292 4.64994,0 10.96909,1.6692093 10.96909,8.46527563 0,3.3384189 -2.38459,6.0806909 -5.48455,7.3922129 -0.23846,0 -0.23846,0.119229 0,0.238458 4.41148,1.073063 8.34605,3.815336 8.34605,9.061422 0,5.126857 -3.21919,8.226818 -7.7499,10.253715 -2.8615,1.192292 -6.31915,1.669209 -9.7768,1.669209 -2.74227,0 -9.89603,-0.238459 -13.94982,-0.238459 -0.47692,-0.119229 0.35769,-2.026897 0.71537,-2.384584 0.95384,0 1.66921,-0.11923 2.74228,-0.476917 1.43075,-0.357688 1.54998,-0.834605 1.78844,-2.980731 0.11923,-1.788439 0.11923,-8.346047 0.11923,-12.995987 l 0,-12.7575279 c -0.11923,-1.66921 -0.71538,-2.146126 -1.78844,-2.503814 -0.95384,-0.119229 -2.38459,-0.357688 -3.57688,-0.476917 -0.47692,-0.238459 0.47692,-2.02689713 0.8346,-2.26535563 z M 391.28085,25.596147 c 0,-5.246087 -3.81534,-8.107588 -10.84986,-8.107588 -0.35769,0 -2.50382,-0.119229 -3.09996,0 -0.23846,0 -0.35769,0.119229 -0.35769,0.238458 0,3.696107 -0.11923,9.657568 0.11923,12.042153 0.11923,0.953834 0.8346,2.384585 1.78844,2.861502 0.95383,0.476917 3.09996,0.596146 4.64994,0.596146 4.05379,0.119229 7.7499,-2.146126 7.7499,-7.630671 z M 377.68872,1.9887581 c -0.23846,0 -0.59615,0.596146 -0.59615,0.953834 0,2.146126 -0.11923,7.6306709 -0.11923,11.5652359 0,0.119229 0.11923,0.238458 0.35769,0.238458 0.8346,0.11923 2.74227,0.11923 4.29225,0.11923 2.26536,0 3.57688,-0.238459 4.29225,-0.596147 1.90767,-0.953833 2.8615,-2.98073 2.8615,-5.2460859 0,-5.126857 -3.57687,-7.034525 -8.94219,-7.034525 -0.35769,-0.119229 -1.31152,-0.119229 -2.14612,0 z" inkscape:connector-curvature="0" style="fill:#93795d" /><path id="path5500" d="m 153.18006,36.207549 c -0.11923,-0.119229 -0.23846,-0.596146 -0.23846,-1.192292 0,-0.476917 0.11923,-0.715376 0.23846,-0.834605 1.07307,-0.119229 1.66921,-0.238459 2.26536,-0.476917 1.07306,-0.238459 1.43075,-0.834605 1.54998,-2.146126 0.11923,-3.21919 0.23846,-9.180652 0.11923,-13.353675 l 0,-0.119229 c 0,-0.476917 0,-1.073063 -0.59615,-1.54998 -0.8346,-0.596146 -1.90767,-0.953834 -3.21919,-1.430751 -0.47691,-0.119229 -0.8346,-0.357688 -0.71537,-0.715375 0,-0.238459 0.35768,-0.715376 0.95383,-0.834605 1.78844,-0.119229 6.31915,-1.311522 7.98836,-2.026897 0.11923,0.119229 0.23846,0.357688 0.23846,0.834605 l 0,0.596146 c 0,0.596146 -0.11923,1.311521 -0.11923,1.907668 0,0.238458 0.23846,0.357687 0.47692,0.357687 0.11923,0 0.23845,0 0.35768,-0.119229 3.33842,-2.623043 6.43838,-3.576877 7.98836,-3.576877 2.62305,0 4.53071,1.192292 6.08069,3.696106 0.11923,0.11923 0.23846,0.238459 0.35769,0.238459 0.11923,0 0.23846,-0.119229 0.35769,-0.119229 3.09996,-2.384585 6.19992,-3.815336 8.22682,-3.815336 4.88839,0 7.86913,3.696106 7.86913,9.776797 l 0,10.849861 c 0,0.238458 0.35768,1.073063 0.95383,1.192292 0.71538,0.357688 1.78844,0.476917 3.09996,0.715376 0.11923,0.357687 -0.11923,1.669209 -0.35769,2.026897 l -1.31152,0 c -1.07306,0 -2.38458,-0.11923 -4.05379,-0.11923 -3.21919,0 -5.00763,0.11923 -6.55761,0.11923 -0.11923,-0.357688 -0.11923,-1.66921 0,-2.026897 0.95383,-0.11923 1.43075,-0.238459 2.0269,-0.476917 1.07306,-0.357688 1.31152,-0.834605 1.43075,-2.146127 0,-0.953833 0.23845,-9.538338 -0.11923,-11.565235 -0.35769,-2.146127 -1.90767,-4.530711 -5.36532,-4.530711 -1.31152,0 -3.33842,0.596146 -5.36531,2.026897 -0.11923,0.119229 -0.23846,0.357687 -0.23846,0.476917 0.23846,1.073063 0.23846,2.384584 0.23846,4.292252 l 0,9.776797 c 0,1.192293 0.71537,1.430751 1.31152,1.66921 0.35769,0.119229 0.59614,0.119229 0.8346,0.238458 0.47692,0.119229 0.95384,0.238459 1.66921,0.357688 0.11923,0.238458 0.11923,0.953834 0,1.430751 -0.11923,0.357687 -0.11923,0.476917 -0.23846,0.476917 -1.78844,-0.11923 -3.6961,-0.11923 -6.31915,-0.11923 -0.8346,0 -2.14612,0 -3.33842,0.11923 l -2.38458,0 c -0.11923,-0.11923 -0.11923,-0.476917 -0.11923,-1.073063 0,-0.476917 0.11923,-0.834605 0.23846,-0.953834 0.23846,0 0.47692,-0.11923 0.71537,-0.11923 0.59615,-0.119229 1.1923,-0.238458 1.66921,-0.357687 0.83461,-0.238459 1.1923,-0.715376 1.31153,-1.907668 0.11922,-2.623043 0.35768,-10.134485 -0.11923,-12.042153 -0.59615,-2.980731 -2.38459,-4.530711 -5.12686,-4.530711 -1.66921,0 -3.69611,0.834605 -5.36532,2.026897 -0.23845,0.238459 -0.47691,0.715376 -0.47691,1.192292 l 0,3.099961 c 0,3.815335 0,8.584505 0.11923,10.611402 0,0.596146 0.23845,1.43075 1.43075,1.669209 0.23846,0.119229 0.71537,0.119229 1.19229,0.238458 0.35769,0 0.59615,0.11923 0.95383,0.11923 0.11923,0.357687 0,1.54998 -0.11923,2.026897 -0.47691,0 -1.19229,0 -1.90766,-0.11923 -1.07307,0 -2.50382,-0.119229 -4.0538,-0.119229 -1.90767,0 -3.21919,0.119229 -4.17302,0.119229 -1.07306,0.238459 -1.66921,0.238459 -2.26536,0.238459 z m 60.21077,0.476917 c -8.9422,0 -12.16138,-6.557608 -12.16138,-12.757528 0,-4.292253 1.78843,-7.630672 5.24608,-10.015256 2.50382,-1.54998 5.36532,-2.384585 8.10759,-2.384585 6.79607,0 11.68447,4.888399 11.68447,11.922924 0,4.769169 -1.90767,8.584505 -5.48455,10.969089 -1.90767,1.192293 -4.8884,2.265356 -7.39221,2.265356 z M 212.43699,14.15014 c -1.07306,0 -2.14612,0.238459 -2.8615,0.834605 -2.0269,1.311521 -3.09996,3.815335 -3.09996,7.511442 0,6.915295 3.45765,11.803694 8.46528,11.803694 1.43075,0 2.62304,-0.476917 3.6961,-1.311521 1.54998,-1.192293 2.38459,-3.815336 2.38459,-7.392213 -0.11923,-6.915296 -3.57688,-11.446007 -8.58451,-11.446007 z m 93.95264,22.534326 c -8.94219,0 -12.16138,-6.557608 -12.16138,-12.757528 0,-4.292253 1.78844,-7.630672 5.24609,-10.015256 2.50381,-1.54998 5.36531,-2.384585 8.10758,-2.384585 6.79607,0 11.68447,4.888399 11.68447,11.922924 0,4.769169 -1.90767,8.584505 -5.48455,10.969089 -1.90766,1.192293 -4.88839,2.265356 -7.39221,2.265356 z M 305.4358,14.15014 c -1.07307,0 -2.14613,0.238459 -2.8615,0.834605 -2.0269,1.311521 -3.09996,3.815335 -3.09996,7.511442 0,6.915295 3.45764,11.803694 8.46527,11.803694 1.43075,0 2.62305,-0.476917 3.69611,-1.311521 1.54998,-1.192293 2.38458,-3.815336 2.38458,-7.392213 -0.23846,-6.915296 -3.57687,-11.446007 -8.5845,-11.446007 z m -30.04577,36.722605 c -3.21919,0 -5.60377,-0.715375 -7.51144,-2.146126 -1.90767,-1.430751 -2.74227,-3.696107 -2.74227,-5.246087 0,-0.476917 0.11923,-1.54998 1.07306,-2.623043 0.59615,-0.596146 1.90767,-1.788438 4.8884,-3.934565 0.11923,0 0.11923,-0.119229 0.11923,-0.238458 0,-0.119229 -0.11923,-0.238459 -0.23846,-0.238459 -2.50382,-0.953834 -3.21919,-2.503814 -3.45765,-3.338418 l 0,-0.119229 c -0.11923,-0.357688 -0.11923,-0.596147 0.35769,-0.953834 0.35769,-0.238459 0.95383,-0.596147 1.54998,-0.953834 0.8346,-0.476917 1.90767,-1.073063 2.38458,-1.54998 0.11923,-0.11923 0.11923,-0.238459 0.11923,-0.357688 0,-0.119229 -0.11923,-0.238459 -0.23846,-0.238459 -3.6961,-1.192292 -5.48454,-3.934564 -5.48454,-8.107588 0,-2.623043 1.19229,-5.126857 3.33842,-6.676837 1.43075,-1.192292 5.12686,-2.503814 7.51144,-2.503814 l 0.11923,0 c 2.50381,0 3.81533,0.596146 5.723,1.311522 1.07307,0.357688 2.0269,0.596146 3.45765,0.596146 2.0269,0 2.98073,-0.596146 3.69611,-1.430751 0,0.119229 0.11923,0.357688 0.23845,1.073063 0,0.715376 -0.11922,1.66921 -0.71537,2.384585 -0.47692,0.596146 -1.43075,0.953834 -2.26536,0.953834 l -0.23845,0 c -0.95384,-0.119229 -1.43076,-0.238459 -1.43076,-0.238459 l -0.23845,0.11923 c -0.11923,0.119229 0,0.238458 0,0.357687 l 0,0.11923 c 0.11923,0.476917 0.35768,1.907667 0.35768,2.265355 0,4.292253 -1.66921,6.19992 -3.57687,7.630671 -1.78844,1.311522 -3.81534,2.146126 -6.19992,2.384585 l -1.43075,0 c -0.35769,0.119229 -1.43076,0.596146 -1.43076,1.54998 0,0.715375 0.47692,1.788439 2.74228,1.907668 0.47691,0 0.95383,0.119229 1.43075,0.119229 2.98073,0.238459 6.79606,0.476917 8.46527,1.073063 2.38459,0.834605 3.93457,3.09996 3.93457,5.603774 0,3.934565 -2.74227,7.511442 -7.39221,9.776798 -2.14613,1.192292 -4.53071,1.669209 -6.9153,1.669209 z m -0.35769,-13.711362 c -1.07306,0 -1.78844,0.357688 -2.26535,0.596146 -2.14613,1.430751 -3.21919,2.861502 -3.21919,4.411482 0,1.54998 0.59614,2.742272 1.90767,3.815335 1.54998,1.311522 3.57687,1.907668 6.31915,1.907668 5.36531,0 7.7499,-2.861502 7.7499,-5.723003 0,-2.026897 -0.95384,-3.338419 -3.09996,-4.053794 -1.54998,-0.596146 -4.17303,-0.953834 -7.39222,-0.953834 z m 0.35769,-23.249701 c -2.74227,0 -4.53071,2.146126 -4.53071,5.603774 0,3.457648 1.54998,7.392212 5.84223,7.392212 0.71538,0 2.14613,-0.357687 2.74227,-1.073063 0.95384,-0.953834 1.66921,-2.861501 1.66921,-4.888398 0,-4.411482 -2.14612,-7.034525 -5.723,-7.034525 z m -14.6652,20.149741 c -1.31152,-0.11923 -2.26535,-0.357688 -3.45764,-0.834605 -0.23846,-0.119229 -0.47692,-0.596146 -0.47692,-0.834605 -0.11923,-1.788438 -0.11923,-7.153754 -0.11923,-10.611402 0,-2.861501 -0.47692,-5.365315 -1.66921,-7.034525 -1.43075,-2.026897 -3.45765,-3.219189 -6.08069,-3.219189 -2.38458,0 -5.48454,1.54998 -7.98836,3.815336 -0.11923,0 -0.47692,0.476916 -0.47692,-0.11923 0,-0.596146 0.11923,-1.788438 0.11923,-2.503814 0,-0.715375 -0.35768,-1.073063 -0.35768,-1.073063 -1.66921,0.834605 -6.43838,1.907668 -8.10759,2.146126 -1.31152,0.238459 -1.66921,1.430751 -0.23846,1.907668 1.43075,0.476917 2.38458,0.834605 3.09996,1.311522 0.59615,0.357688 0.47692,0.953834 0.47692,1.430751 0.11923,3.934564 0.11923,10.015256 -0.11923,13.353674 -0.11923,1.311522 -0.47692,1.788439 -1.43075,2.026897 l 0.11923,0 c -0.71538,0.119229 -1.31153,0.238459 -2.26536,0.357688 -0.35769,0.238458 -0.35769,2.026897 0,2.384585 0.59615,0 3.69611,-0.11923 6.19992,-0.11923 3.45765,0 5.24609,0.11923 6.19992,0.11923 0.35769,-0.357688 0.47692,-2.026897 0.23846,-2.384585 -1.07306,0 -1.78844,-0.119229 -2.50381,-0.357688 -0.95384,-0.238458 -1.1923,-0.715375 -1.31153,-1.788438 -0.11923,-2.742273 -0.11923,-8.703735 -0.11923,-12.638299 0,-1.073064 0.35769,-1.66921 0.71538,-1.907668 1.19229,-1.073063 3.21919,-1.788439 4.8884,-1.788439 1.66921,0 2.8615,0.476917 3.6961,1.192293 1.1923,0.953834 1.54998,2.265355 1.66921,3.338418 0.23846,2.265356 0.11923,6.676837 0.11923,10.611402 0,2.146127 -0.11923,2.623043 -0.95383,2.861502 -0.35769,0.119229 -1.31152,0.357688 -2.50381,0.476917 -0.35769,0.357688 -0.23846,2.026897 0,2.384585 1.54998,0 3.33841,-0.11923 5.96146,-0.11923 3.33842,0 5.36531,0.11923 6.19992,0.11923 0.59614,-0.596147 0.71537,-2.146127 0.47691,-2.503814 z" inkscape:connector-curvature="0" style="fill:#4e362a" /></g></svg>