<?xml version="1.0" encoding="UTF-8" standalone="no"?>
<!-- Generator: Adobe Illustrator 15.1.0, SVG Export Plug-In . SVG Version: 6.00 Build 0)  -->

<svg xmlns:osb="http://www.openswatchbook.org/uri/2009/osb" xmlns:dc="http://purl.org/dc/elements/1.1/" xmlns:cc="http://creativecommons.org/ns#" xmlns:rdf="http://www.w3.org/1999/02/22-rdf-syntax-ns#" xmlns:svg="http://www.w3.org/2000/svg" xmlns="http://www.w3.org/2000/svg" xmlns:xlink="http://www.w3.org/1999/xlink" xmlns:sodipodi="http://sodipodi.sourceforge.net/DTD/sodipodi-0.dtd" xmlns:inkscape="http://www.inkscape.org/namespaces/inkscape" version="1.0" id="Layer_1" x="0px" y="0px" width="96" height="96" viewBox="0 0 96 96" enable-background="new 0 0 792 612" xml:space="preserve" inkscape:version="0.91 r13725" sodipodi:docname="mysql.svg"><metadata id="metadata49"><rdf:RDF><cc:Work rdf:about=""><dc:format>image/svg+xml</dc:format><dc:type rdf:resource="http://purl.org/dc/dcmitype/StillImage" /><dc:title></dc:title></cc:Work></rdf:RDF></metadata><defs id="defs47"><linearGradient osb:paint="solid" id="linearGradient3942"><stop id="stop3944" offset="0" style="stop-color:#ffffff;stop-opacity:1;" /></linearGradient><linearGradient inkscape:collect="always" xlink:href="#linearGradient6114" id="linearGradient6112" x1="346.11499" y1="520.72614" x2="346.11499" y2="567.32123" gradientUnits="userSpaceOnUse" /><radialGradient inkscape:collect="always" xlink:href="#linearGradient6030" id="radialGradient6106" gradientUnits="userSpaceOnUse" gradientTransform="matrix(4.39697,-0.781364,0.273452,1.5388,-1379.4,111.904)" cx="363.84866" cy="494.10422" fx="363.84866" fy="494.10422" r="88.392456" /><linearGradient inkscape:collect="always" xlink:href="#linearGradient6056" id="linearGradient6054" x1="331.34576" y1="452.02783" x2="331.34576" y2="574.2973" gradientUnits="userSpaceOnUse" /><linearGradient id="linearGradient6030"><stop style="stop-color:#ffffff;stop-opacity:1;" offset="0" id="stop6032" /><stop id="stop6038" offset="0.5" style="stop-color:#000000;stop-opacity:1;" /><stop style="stop-color:#ffffff;stop-opacity:1;" offset="0.51028222" id="stop6040" /><stop style="stop-color:#000000;stop-opacity:1;" offset="1" id="stop6034" /></linearGradient><linearGradient id="linearGradient6056"><stop id="stop6062" offset="0" style="stop-color:#ffffff;stop-opacity:1;" /><stop id="stop6064" offset="1" style="stop-color:#838383;stop-opacity:1;" /></linearGradient><linearGradient id="linearGradient6114"><stop style="stop-color:#ffffff;stop-opacity:0;" offset="0" id="stop6116" /><stop style="stop-color:#000000;stop-opacity:0.53846157;" offset="1" id="stop6118" /></linearGradient><radialGradient cx="77.914261" cy="-48.544521" r="146" fx="77.914261" fy="-48.544521" id="radialGradient3870" xlink:href="#linearGradient3798" gradientUnits="userSpaceOnUse" gradientTransform="matrix(1.5089497,0,0,1.3582164,-39.028917,76.957747)" /><linearGradient x1="150" y1="84" x2="299" y2="84" id="linearGradient3798" gradientUnits="userSpaceOnUse"><stop id="stop3800" style="stop-color:#dddce9;stop-opacity:1" offset="0" /><stop id="stop3802" style="stop-color:#5664a3;stop-opacity:1" offset="0.37" /><stop id="stop3804" style="stop-color:#000000;stop-opacity:1" offset="1" /></linearGradient><linearGradient id="linearGradient5463"><stop style="stop-color:#fec070;stop-opacity:1;" offset="0" id="stop5465" /><stop style="stop-color:#fec070;stop-opacity:0;" offset="1" id="stop5467" /></linearGradient><linearGradient id="linearGradient5471"><stop style="stop-color:#fec878;stop-opacity:1" offset="0" id="stop5473" /><stop style="stop-color:#ffa150;stop-opacity:1;" offset="1" id="stop5475" /></linearGradient><clipPath clipPathUnits="userSpaceOnUse" id="clipPath18"><path inkscape:connector-curvature="0" d="M 0,501.602 0,0 l 1863.85,0 0,501.602 -1863.85,0 z" id="path20" /></clipPath><clipPath clipPathUnits="userSpaceOnUse" id="clipPath18-9"><path inkscape:connector-curvature="0" d="M 0,501.602 0,0 l 1863.85,0 0,501.602 -1863.85,0 z" id="path20-0" /></clipPath><clipPath clipPathUnits="userSpaceOnUse" id="clipPath18-9-1"><path inkscape:connector-curvature="0" d="M 0,501.602 0,0 l 1863.85,0 0,501.602 -1863.85,0 z" id="path20-0-9" /></clipPath><clipPath clipPathUnits="userSpaceOnUse" id="clipPath18-9-1-5"><path inkscape:connector-curvature="0" d="M 0,501.602 0,0 l 1863.85,0 0,501.602 -1863.85,0 z" id="path20-0-9-8" /></clipPath><linearGradient id="linearGradient4689"><stop id="stop4691" offset="0" style="stop-color:#5a9fd4;stop-opacity:1;" /><stop id="stop4693" offset="1" style="stop-color:#306998;stop-opacity:1;" /></linearGradient><linearGradient id="linearGradient4671"><stop id="stop4673" offset="0" style="stop-color:#ffd43b;stop-opacity:1;" /><stop id="stop4675" offset="1" style="stop-color:#ffe873;stop-opacity:1" /></linearGradient><linearGradient id="c"><stop id="stop4686" stop-opacity=".498" stop-color="#b8b8b8" offset="0" /><stop id="stop4688" stop-opacity="0" stop-color="#7f7f7f" offset="1" /></linearGradient><linearGradient id="linearGradient4700" gradientTransform="matrix(0.562541,0,0,0.567972,-9.399749,304.46299)" gradientUnits="userSpaceOnUse" xlink:href="#linearGradient4671" y2="137.273" x2="112.031" y1="192.352" x1="150.961" /><linearGradient id="linearGradient4702" gradientTransform="matrix(0.562541,0,0,0.567972,-9.399749,304.46299)" gradientUnits="userSpaceOnUse" xlink:href="#linearGradient4689" y2="114.398" x2="135.665" y1="20.604" x1="26.649" /><radialGradient id="radialGradient4704" gradientTransform="matrix(2.382716e-8,-0.296405,1.43676,4.683673e-7,-128.544,150.5202)" gradientUnits="userSpaceOnUse" xlink:href="#c" fy="132.286" fx="61.519" r="29.037" cy="132.286" cx="61.519" /><linearGradient gradientTransform="matrix(0.562541,0,0,0.567972,-9.399749,304.46299)" gradientUnits="userSpaceOnUse" xlink:href="#linearGradient4689" id="d" y2="114.398" x2="135.665" y1="20.604" x1="26.649" /><linearGradient gradientTransform="matrix(0.562541,0,0,0.567972,-9.399749,304.46299)" gradientUnits="userSpaceOnUse" xlink:href="#linearGradient4671" id="e" y2="137.273" x2="112.031" y1="192.352" x1="150.961" /><radialGradient gradientTransform="matrix(1.5089497,0,0,1.3582164,-39.028917,76.957747)" gradientUnits="userSpaceOnUse" xlink:href="#linearGradient3798" id="radialGradient3870-0" fy="-48.544521" fx="77.914261" r="146" cy="-48.544521" cx="77.914261" /><radialGradient gradientTransform="matrix(1.5089497,0,0,1.3582164,-39.028917,76.957747)" gradientUnits="userSpaceOnUse" xlink:href="#linearGradient3798" id="radialGradient3870-4" fy="-48.544521" fx="77.914261" r="146" cy="-48.544521" cx="77.914261" /><radialGradient gradientTransform="matrix(1.5089497,0,0,1.3582164,-39.028917,76.957747)" gradientUnits="userSpaceOnUse" xlink:href="#linearGradient3798" id="radialGradient3870-7" fy="-48.544521" fx="77.914261" r="146" cy="-48.544521" cx="77.914261" /><radialGradient gradientTransform="matrix(1.5089497,0,0,1.3582164,-39.028917,76.957747)" gradientUnits="userSpaceOnUse" xlink:href="#linearGradient3798" id="radialGradient3870-2" fy="-48.544521" fx="77.914261" r="146" cy="-48.544521" cx="77.914261" /></defs><sodipodi:namedview pagecolor="#ffffff" bordercolor="#666666" borderopacity="1" objecttolerance="10" gridtolerance="10" guidetolerance="10" inkscape:pageopacity="0" inkscape:pageshadow="2" inkscape:window-width="1745" inkscape:window-height="1018" id="namedview45" showgrid="false" inkscape:zoom="1.0907007" inkscape:cx="-325.57853" inkscape:cy="-59.957362" inkscape:window-x="0" inkscape:window-y="0" inkscape:window-maximized="0" inkscape:current-layer="g5508" /><style id="style3489" type="text/css"><![CDATA[
	.st0{fill:#EBEBEB;}
	.st1{fill:#8ACF17;}
	.st2{fill:#FFFFFF;}
	.st3{fill:#63A814;}
]]></style><g id="g5508" transform="matrix(0.32647839,0,0,0.32647839,-41.807808,39.83804)"><g id="g5573" transform="matrix(0.62863005,0,0,0.62863005,152.09671,-38.571485)"><g id="g5535" transform="translate(0.738281,121.593)"><path id="path5537" d="m 0,62.235 12.842,0 0,-50.711 19.881,44.208 c 2.346,5.351 5.557,7.243 11.854,7.243 6.298,0 9.385,-1.893 11.731,-7.243 l 19.88,-44.208 0,50.711 12.842,0 0,-50.628 C 89.03,6.669 87.053,4.28 82.979,3.045 73.225,0 66.68,2.634 63.716,9.219 L 44.206,52.85 25.313,9.219 C 22.474,2.634 15.806,0 6.051,3.046 1.976,4.28 0,6.669 0,11.607 l 0,50.628 z" inkscape:connector-curvature="0" style="fill:#00618a" /></g><g id="g5539" transform="translate(100.444,142.416)"><path id="path5541" d="m 0.002,0.136 12.838,0 0,27.938 c -0.12,1.518 0.487,5.08 7.522,5.191 3.589,0.055 27.7,0 27.925,0 L 48.287,0 61.155,0 C 61.214,0 61.142,45.364 61.143,45.557 61.214,56.745 47.261,59.175 40.83,59.364 l -40.549,0 0,-8.639 c 0.071,0 40.519,0.008 40.621,-0.002 8.265,-0.873 7.289,-4.981 7.288,-6.365 l 0,-3.368 -27.295,0 C 8.196,40.873 0.109,35.331 0.009,28.955 0,28.364 0.283,0.415 0.002,0.136 Z" inkscape:connector-curvature="0" style="fill:#00618a" /></g><g id="g5543" transform="translate(171.496,124.557)"><path id="path5545" d="m 0,59.271 36.92,0 c 4.322,0 8.521,-0.905 11.855,-2.471 5.556,-2.551 8.272,-6.008 8.272,-10.537 l 0,-9.383 c 0,-3.705 -3.087,-7.164 -9.138,-9.467 -3.211,-1.236 -7.162,-1.895 -10.99,-1.895 l -15.558,0 c -5.185,0 -7.655,-1.564 -8.272,-5.021 -0.124,-0.412 -0.124,-0.742 -0.124,-1.152 l 0,-5.844 c 0,-0.33 0,-0.66 0.124,-1.072 0.617,-2.633 1.976,-3.375 6.544,-3.786 0.371,0 0.864,-0.083 1.235,-0.083 l 36.674,0 0,-8.56 -36.057,0 C 16.299,0 13.582,0.329 11.113,1.069 3.457,3.457 0.123,7.244 0.123,13.83 l 0,7.491 c 0,5.763 6.545,10.702 17.534,11.854 1.236,0.082 2.47,0.164 3.704,0.164 l 13.336,0 c 0.494,0 0.988,0 1.358,0.082 4.075,0.33 5.804,1.07 7.039,2.553 0.74,0.74 0.987,1.482 0.987,2.305 l 0,7.491 c 0,0.905 -0.617,2.059 -1.852,3.046 -1.111,0.988 -2.963,1.646 -5.434,1.812 -0.494,0 -0.863,0.082 -1.357,0.082 L 0,50.71 0,59.271 Z" inkscape:connector-curvature="0" style="fill:#e48e00" /></g><g id="g5547" transform="translate(308.656,124.557)"><path id="path5549" d="m 0,44.371 c 0,8.809 6.544,13.748 19.757,14.736 1.234,0.082 2.47,0.164 3.704,0.164 l 33.464,0 0,-8.561 -33.711,0 c -7.532,0 -10.372,-1.895 -10.372,-6.422 L 12.842,0 0,0 0,44.371 Z" inkscape:connector-curvature="0" style="fill:#e48e00" /></g><g id="g5551" transform="translate(236.74,124.666)"><path id="path5553" d="M 0,44.711 0,14.189 C 0,6.436 5.446,1.732 16.209,0.247 17.323,0.083 18.561,0 19.674,0 L 44.05,0 c 1.237,0 2.353,0.083 3.589,0.247 10.766,1.485 16.209,6.188 16.209,13.942 l 0,30.521 c 0,6.291 -2.312,9.658 -7.641,11.852 l 12.65,11.418 -14.911,0 -10.233,-9.237 -10.304,0.653 -13.735,0 c -2.352,0 -4.825,-0.332 -7.548,-1.073 C 3.96,56.096 0,51.807 0,44.711 Z m 13.862,-0.742 c 0,0.413 0.123,0.825 0.246,1.32 0.742,3.547 4.084,5.527 9.156,5.527 l 11.667,0 -10.717,-9.676 14.911,0 9.347,8.438 c 1.722,-0.918 2.856,-2.322 3.252,-4.125 0.123,-0.412 0.123,-0.825 0.123,-1.237 l 0,-29.284 c 0,-0.33 0,-0.742 -0.123,-1.156 C 50.981,10.477 47.64,8.581 42.692,8.581 l -19.428,0 c -5.691,0 -9.402,2.475 -9.402,6.352 l 0,29.036 z" inkscape:connector-curvature="0" style="fill:#e48e00" /></g><g id="g5555" transform="translate(241.59,-4.64258)"><path id="path5557" d="m 135.289,114.997 c -7.894,-0.214 -13.924,0.521 -19.079,2.694 -1.465,0.617 -3.801,0.634 -4.04,2.47 0.806,0.844 0.931,2.104 1.57,3.142 1.23,1.992 3.309,4.661 5.163,6.062 2.025,1.528 4.114,3.165 6.286,4.489 3.862,2.355 8.176,3.701 11.896,6.061 2.192,1.391 4.37,3.143 6.509,4.713 1.058,0.775 1.769,1.982 3.143,2.469 0,-0.074 0,-0.148 0,-0.224 -0.723,-0.919 -0.908,-2.183 -1.571,-3.144 -0.972,-0.972 -1.945,-1.944 -2.918,-2.918 -2.853,-3.787 -6.475,-7.112 -10.325,-9.875 -3.069,-2.205 -9.941,-5.182 -11.223,-8.754 -0.075,-0.076 -0.149,-0.15 -0.225,-0.226 2.177,-0.245 4.726,-1.033 6.734,-1.571 3.375,-0.904 6.392,-0.671 9.876,-1.57 1.571,-0.449 3.143,-0.899 4.714,-1.348 0,-0.3 0,-0.598 0,-0.898 -1.762,-1.808 -3.018,-4.199 -4.938,-5.836 -5.026,-4.279 -10.513,-8.556 -16.161,-12.121 -3.133,-1.978 -7.005,-3.263 -10.325,-4.938 -1.117,-0.563 -3.079,-0.856 -3.817,-1.796 -1.743,-2.224 -2.693,-5.042 -4.038,-7.632 C 99.702,78.82 96.935,72.894 94.439,67.186 92.736,63.293 91.624,59.455 89.501,55.962 79.307,39.205 68.336,29.091 51.342,19.149 47.725,17.035 43.371,16.2 38.77,15.109 36.303,14.96 33.832,14.809 31.364,14.66 29.856,14.03 28.289,12.186 26.875,11.293 21.244,7.736 6.803,0 2.633,10.171 0,16.591 6.568,22.855 8.917,26.108 c 1.649,2.282 3.761,4.841 4.938,7.407 0.775,1.687 0.908,3.378 1.572,5.163 1.631,4.396 3.051,9.18 5.162,13.243 1.066,2.056 2.242,4.222 3.592,6.061 0.826,1.128 2.244,1.625 2.467,3.367 -1.385,1.939 -1.465,4.95 -2.243,7.407 -3.509,11.062 -2.185,24.811 2.918,32.997 1.565,2.513 5.254,7.903 10.325,5.836 4.436,-1.807 3.445,-7.406 4.714,-12.346 0.286,-1.12 0.11,-1.943 0.673,-2.693 0,0.074 0,0.149 0,0.225 1.348,2.693 2.693,5.387 4.041,8.08 2.99,4.816 8.297,9.849 12.794,13.245 2.332,1.762 4.168,4.807 7.183,5.836 0,-0.074 0,-0.148 0,-0.225 -0.075,0 -0.149,0 -0.225,0 -0.584,-0.911 -1.498,-1.288 -2.244,-2.02 -1.757,-1.723 -3.71,-3.863 -5.163,-5.836 -4.09,-5.554 -7.704,-11.631 -10.997,-17.958 -1.574,-3.021 -2.94,-6.354 -4.267,-9.428 -0.511,-1.186 -0.505,-2.978 -1.57,-3.592 -1.452,2.253 -3.591,4.074 -4.714,6.734 -1.796,4.252 -2.027,9.438 -2.693,14.814 -0.394,0.141 -0.219,0.044 -0.449,0.224 -3.127,-0.754 -4.225,-3.972 -5.387,-6.733 C 26.406,88.934 25.86,77.69 28.446,69.653 29.115,67.574 32.139,61.024 30.915,59.103 30.331,57.186 28.403,56.078 27.324,54.613 25.989,52.802 24.656,50.419 23.731,48.328 21.327,42.884 20.204,36.772 17.671,31.269 16.461,28.638 14.414,25.976 12.733,23.637 10.872,21.046 8.788,19.138 7.345,16.004 6.832,14.891 6.136,13.108 6.896,11.964 7.138,11.192 7.48,10.869 8.244,10.617 c 1.302,-1.004 4.928,0.334 6.284,0.897 3.6,1.495 6.604,2.919 9.653,4.938 1.463,0.971 2.943,2.848 4.713,3.367 0.673,0 1.347,0 2.02,0 3.16,0.727 6.7,0.226 9.652,1.122 5.218,1.586 9.894,4.053 14.141,6.734 12.938,8.169 23.516,19.798 30.752,33.67 1.164,2.233 1.668,4.365 2.693,6.734 2.068,4.777 4.675,9.693 6.732,14.365 2.055,4.661 4.057,9.365 6.959,13.244 1.527,2.039 7.423,3.133 10.102,4.265 1.878,0.794 4.955,1.621 6.733,2.693 3.398,2.05 6.69,4.49 9.878,6.735 1.593,1.127 6.489,3.588 6.733,5.616 z" inkscape:connector-curvature="0" style="fill:#00618a" /></g><g id="g5559" transform="translate(272.504,24.8027)"><path id="path5561" d="M 4.041,0.03 C 2.394,0 1.23,0.21 0,0.479 c 0,0.075 0,0.15 0,0.225 0.075,0 0.15,0 0.225,0 C 1.01,2.316 2.396,3.355 3.367,4.744 4.115,6.315 4.863,7.887 5.612,9.457 5.685,9.383 5.761,9.308 5.836,9.233 7.227,8.254 7.863,6.686 7.856,4.295 7.299,3.709 7.217,2.974 6.734,2.274 6.092,1.343 4.85,0.814 4.041,0.03 Z" inkscape:connector-curvature="0" style="fill:#00618a" /></g><g id="g5563" transform="translate(371.609,165.56)"><path id="path5565" d="m 0,9.463 c 0,5.653 4.467,9.463 9.464,9.463 4.997,0 9.464,-3.81 9.464,-9.463 C 18.928,3.81 14.461,0 9.464,0 4.467,0 0,3.81 0,9.463 Z m 16.808,0 c 0,4.289 -3.28,7.496 -7.344,7.496 -4.113,0 -7.345,-3.207 -7.345,-7.496 0,-4.291 3.231,-7.496 7.345,-7.496 4.064,0 7.344,3.205 7.344,7.496 z m -4.794,5.401 2.119,0 -3.103,-4.744 c 1.665,-0.177 2.927,-0.984 2.927,-2.953 0,-2.195 -1.388,-3.104 -4.062,-3.104 l -4.216,0 0,10.801 1.817,0 0,-4.669 1.69,0 2.828,4.669 z m -4.518,-6.183 0,-3.104 2.094,0 c 1.086,0 2.397,0.202 2.397,1.465 0,1.513 -1.186,1.64 -2.549,1.64 l -1.942,0 z" inkscape:connector-curvature="0" style="fill:#e48e00" /></g></g></g></svg>