<?xml version="1.0" encoding="UTF-8" standalone="no"?>
<svg xmlns:dc="http://purl.org/dc/elements/1.1/" xmlns:cc="http://creativecommons.org/ns#" xmlns:rdf="http://www.w3.org/1999/02/22-rdf-syntax-ns#" xmlns:svg="http://www.w3.org/2000/svg" xmlns="http://www.w3.org/2000/svg" xml:space="preserve" enable-background="new 0 0 792 612" viewBox="0 0 96 96" height="96" width="96" y="0px" x="0px" id="Layer_1" version="1.0"><metadata id="metadata49"><rdf:RDF><cc:Work rdf:about=""><dc:format>image/svg+xml</dc:format><dc:type rdf:resource="http://purl.org/dc/dcmitype/StillImage" /><dc:title></dc:title></cc:Work></rdf:RDF></metadata><defs id="defs47" /><style type="text/css" id="style3489"><![CDATA[
	.st0{fill:#EBEBEB;}
	.st1{fill:#8ACF17;}
	.st2{fill:#FFFFFF;}
	.st3{fill:#63A814;}
]]></style><style type="text/css" id="style4508">
	.st0{fill:#8CC04B;}
	.st1{fill:#C7053D;}
</style><g transform="matrix(0.12914169,0,0,0.12914169,16.204658,8.035366)" id="g4568"><g id="Layer_1-3"><path d="m 133.3,0 c -3.2,0.1 -6.6,1.3 -10.5,4.3 -9.5,-3.6 -18.7,-4.9 -27,2.5 C 83.1,5.2 78.9,8.5 75.8,12.5 73,12.4 54.9,9.7 46.6,21.9 25.7,19.5 19.1,34 26.6,47.6 c -4.3,6.5 -8.7,12.9 1.3,25.3 -3.5,6.9 -1.3,14.4 7,23.5 -2.2,9.7 2.1,16.6 9.9,21.9 -1.4,13.3 12.4,21 16.5,23.8 1.6,7.7 4.9,15 20.7,19.1 2.6,11.5 12.1,13.5 21.3,16 -30.4,17.4 -56.4,40.3 -56.2,96.4 l -4.4,7.8 C 7.6,302 -23.7,369.1 25.3,423.5 c 3.2,17.1 8.6,29.3 13.3,42.9 7.1,54.6 53.8,80.2 66.1,83.2 18,13.5 37.2,26.4 63.2,35.3 24.5,24.9 51,34.4 77.7,34.3 0.4,0 0.8,0 1.2,0 26.7,0 53.2,-9.5 77.7,-34.3 26,-9 45.2,-21.8 63.2,-35.3 12.3,-3 58.9,-28.6 66.1,-83.2 4.8,-13.6 10.1,-25.8 13.3,-42.9 49,-54.5 17.7,-121.5 -17.2,-142.4 l -4.5,-7.8 c 0.2,-56.1 -25.9,-79 -56.2,-96.4 9.2,-2.4 18.7,-4.4 21.3,-16 15.8,-4 19.1,-11.3 20.7,-19.1 4.1,-2.8 17.9,-10.5 16.5,-23.8 7.7,-5.3 12,-12.2 9.9,-21.9 8.3,-9.1 10.5,-16.6 7,-23.5 10,-12.4 5.6,-18.8 1.3,-25.3 7.5,-13.6 0.9,-28.1 -20,-25.7 C 437.6,9.4 419.5,12.2 416.7,12.2 413.6,8.3 409.4,4.9 396.7,6.5 388.5,-0.9 379.2,0.4 369.7,4 358.4,-4.8 350.9,2.3 342.4,4.9 328.7,0.5 325.6,6.5 318.9,9 304,5.9 299.4,12.7 292.3,19.8 L 284,19.6 c -22.5,13.1 -33.7,39.7 -37.6,53.3 -4,-13.7 -15.1,-40.3 -37.6,-53.3 l -8.3,0.2 C 193.3,12.7 188.8,5.9 173.9,9 167.2,6.5 164.1,0.5 150.4,4.9 144.5,3.5 139.3,-0.2 133.3,0 Z" id="path4510" /><path style="fill:#8cc04b" class="st0" d="m 88.5,57.5 c 59.7,30.3 94.4,54.8 113.4,75.7 -9.7,38.4 -60.5,40.2 -79.1,39.1 3.8,-1.7 7,-3.8 8.1,-7 -4.7,-3.3 -21.2,-0.3 -32.7,-6.7 4.4,-0.9 6.5,-1.8 8.6,-5 -10.9,-3.4 -22.6,-6.4 -29.5,-12 3.7,0 7.2,0.8 12.1,-2.5 -9.8,-5.2 -20.2,-9.3 -28.3,-17.2 5,-0.1 10.5,0 12.1,-1.9 -8.9,-5.5 -16.5,-11.5 -22.7,-18.1 7.1,0.8 10,0.1 11.8,-1.1 C 55.5,94 47,88.2 42.9,79.8 c 5.2,1.8 10,2.5 13.5,-0.2 -2.3,-5.1 -12.1,-8.1 -17.8,-20 5.5,0.5 11.4,1.2 12.5,0 -2.6,-10.3 -7,-16.1 -11.3,-22.1 11.8,-0.2 29.7,0 28.9,-0.9 l -7.3,-7.4 c 11.5,-3.1 23.3,0.5 31.9,3.1 3.8,-3 -0.1,-6.8 -4.8,-10.6 9.8,1.3 18.7,3.5 26.7,6.6 4.3,-3.8 -2.8,-7.6 -6.2,-11.4 15.2,2.8 21.6,6.8 28,10.8 4.6,-4.4 0.3,-8.1 -2.9,-11.9 11.4,4.2 17.3,9.5 23.5,14.9 2.1,-2.8 5.3,-4.8 1.4,-11.6 8.1,4.6 14.2,10 18.7,16.1 5,-3.1 3,-7.5 3,-11.4 8.4,6.8 13.8,13.9 20.3,21 1.3,-0.9 2.5,-4.2 3.5,-9.2 20.1,19.2 48.5,67.6 7.3,86.8 C 176.8,93.7 134.9,73 88.5,57.5 Z" id="path4512" /><path style="fill:#8cc04b" class="st0" d="m 405.2,57.5 c -59.7,30.3 -94.4,54.8 -113.4,75.7 9.7,38.4 60.5,40.2 79.1,39.1 -3.8,-1.7 -7,-3.8 -8.1,-7 4.7,-3.3 21.2,-0.3 32.7,-6.7 -4.4,-0.9 -6.5,-1.8 -8.6,-5 10.9,-3.4 22.6,-6.4 29.5,-12 -3.7,0 -7.2,0.8 -12.1,-2.5 9.8,-5.2 20.2,-9.3 28.3,-17.2 -5,-0.1 -10.5,0 -12.1,-1.9 8.9,-5.5 16.5,-11.5 22.7,-18.1 -7.1,0.8 -10,0.1 -11.8,-1.1 6.8,-6.8 15.3,-12.6 19.4,-21 -5.2,1.8 -10,2.5 -13.5,-0.2 2.3,-5.1 12.1,-8.1 17.8,-20 -5.5,0.5 -11.4,1.2 -12.5,0 2.6,-10.3 7,-16.1 11.3,-22.1 -11.8,-0.2 -29.7,0 -28.9,-0.9 l 7.3,-7.4 c -11.5,-3.1 -23.4,0.5 -31.9,3.1 -3.8,-3 0.1,-6.8 4.8,-10.6 -9.8,1.3 -18.7,3.5 -26.7,6.6 -4.3,-3.8 2.8,-7.6 6.2,-11.4 -15.2,2.8 -21.6,6.8 -28,10.8 -4.6,-4.4 -0.3,-8.1 2.9,-11.9 -11.4,4.2 -17.3,9.5 -23.5,14.9 -2.1,-2.8 -5.3,-4.8 -1.4,-11.6 -8.1,4.6 -14.2,10 -18.7,16.1 -5,-3.1 -3,-7.5 -3,-11.4 -8.4,6.8 -13.8,13.9 -20.3,21 -1.3,-0.9 -2.5,-4.2 -3.5,-9.2 -20.1,19.2 -48.5,67.6 -7.3,86.8 35,-28.7 76.9,-49.4 123.3,-64.9 z" id="path4514" /><g id="g4538"><path style="fill:#c7053d" class="st1" d="m 322.3,448.8 c 0.2,35.9 -31.6,65.1 -71.1,65.3 -39.5,0.2 -71.7,-28.7 -71.9,-64.6 0,-0.2 0,-0.5 0,-0.7 -0.2,-35.9 31.6,-65.1 71.1,-65.3 39.5,-0.2 71.7,28.7 71.9,64.6 0,0.3 0,0.5 0,0.7 z" id="path4516" /><path style="fill:#c7053d" class="st1" d="m 209.4,263.3 c 29.6,19.1 35,62.5 11.9,96.8 -23,34.3 -65.7,46.7 -95.4,27.6 v 0 c -29.6,-19.1 -35,-62.5 -11.9,-96.8 23.1,-34.4 65.8,-46.7 95.4,-27.6 z" id="path4518" /><path style="fill:#c7053d" class="st1" d="m 289.4,259.9 c -29.6,19.1 -35,62.5 -11.9,96.8 23,34.3 65.7,46.7 95.4,27.6 v 0 c 29.6,-19.1 35,-62.5 11.9,-96.8 -23.1,-34.4 -65.8,-46.8 -95.4,-27.6 z" id="path4520" /><path style="fill:#c7053d" class="st1" d="m 61.4,294.6 c 32,-8.4 10.8,130.3 -15.2,119 -28.7,-22.7 -37.9,-89.2 15.2,-119 z" id="path4522" /><path style="fill:#c7053d" class="st1" d="m 431,292.9 c -32,-8.4 -10.8,130.3 15.2,119 28.7,-22.8 37.9,-89.2 -15.2,-119 z" id="path4524" /><path style="fill:#c7053d" class="st1" d="m 322.3,189.5 c 55.2,-9.2 101.1,23.1 99.3,82.1 -1.8,22.6 -119.6,-78.7 -99.3,-82.1 z" id="path4526" /><path style="fill:#c7053d" class="st1" d="m 169.8,187.8 c -55.2,-9.2 -101.1,23.1 -99.3,82.1 1.8,22.6 119.6,-78.8 99.3,-82.1 z" id="path4528" /><path style="fill:#c7053d" class="st1" d="m 249.1,174 c -32.9,-0.8 -64.6,24.1 -64.6,38.5 -0.1,17.6 26,35.6 64.9,36 39.6,0.3 64.9,-14.4 65.1,-32.5 0,-20.5 -36.2,-42.3 -65.4,-42 z" id="path4530" /><path style="fill:#c7053d" class="st1" d="m 251.1,534.3 c 28.7,-1.2 67.3,9.1 67.3,22.8 0.5,13.3 -35,43.4 -69.2,42.9 -35.5,1.5 -70.3,-28.7 -69.9,-39.1 -0.5,-15.3 43.3,-27.3 71.8,-26.6 z" id="path4532" /><path style="fill:#c7053d" class="st1" d="m 145,452.9 c 20.4,24.3 29.8,66.9 12.7,79.5 -16.1,9.6 -55.4,5.6 -83.2,-33.8 -18.8,-33.1 -16.4,-66.8 -3.2,-76.7 19.8,-11.8 50.2,4.2 73.7,31 z" id="path4534" /><path style="fill:#c7053d" class="st1" d="m 353.1,445.3 c -22.1,25.5 -34.4,72.1 -18.3,87.1 15.4,11.6 56.9,10 87.5,-31.8 22.2,-28.1 14.8,-75 2.1,-87.5 -18.9,-14.4 -46,4 -71.3,32.2 z" id="path4536" /></g></g><g id="Layer_2" /></g></svg>