<?xml version="1.0" encoding="UTF-8" standalone="no"?>
<!-- Generator: Adobe Illustrator 15.1.0, SVG Export Plug-In . SVG Version: 6.00 Build 0)  -->

<svg xmlns:osb="http://www.openswatchbook.org/uri/2009/osb" xmlns:dc="http://purl.org/dc/elements/1.1/" xmlns:cc="http://creativecommons.org/ns#" xmlns:rdf="http://www.w3.org/1999/02/22-rdf-syntax-ns#" xmlns:svg="http://www.w3.org/2000/svg" xmlns="http://www.w3.org/2000/svg" xmlns:xlink="http://www.w3.org/1999/xlink" xmlns:sodipodi="http://sodipodi.sourceforge.net/DTD/sodipodi-0.dtd" xmlns:inkscape="http://www.inkscape.org/namespaces/inkscape" version="1.0" id="Layer_1" x="0px" y="0px" width="96" height="96" viewBox="0 0 96 96" enable-background="new 0 0 792 612" xml:space="preserve" inkscape:version="0.91 r13725" sodipodi:docname="st.svg"><metadata id="metadata49"><rdf:RDF><cc:Work rdf:about=""><dc:format>image/svg+xml</dc:format><dc:type rdf:resource="http://purl.org/dc/dcmitype/StillImage" /><dc:title></dc:title></cc:Work></rdf:RDF></metadata><defs id="defs47"><linearGradient osb:paint="solid" id="linearGradient3942"><stop id="stop3944" offset="0" style="stop-color:#ffffff;stop-opacity:1;" /></linearGradient><linearGradient inkscape:collect="always" xlink:href="#linearGradient6114" id="linearGradient6112" x1="346.11499" y1="520.72614" x2="346.11499" y2="567.32123" gradientUnits="userSpaceOnUse" /><radialGradient inkscape:collect="always" xlink:href="#linearGradient6030" id="radialGradient6106" gradientUnits="userSpaceOnUse" gradientTransform="matrix(4.39697,-0.781364,0.273452,1.5388,-1379.4,111.904)" cx="363.84866" cy="494.10422" fx="363.84866" fy="494.10422" r="88.392456" /><linearGradient inkscape:collect="always" xlink:href="#linearGradient6056" id="linearGradient6054" x1="331.34576" y1="452.02783" x2="331.34576" y2="574.2973" gradientUnits="userSpaceOnUse" /><linearGradient id="linearGradient6030"><stop style="stop-color:#ffffff;stop-opacity:1;" offset="0" id="stop6032" /><stop id="stop6038" offset="0.5" style="stop-color:#000000;stop-opacity:1;" /><stop style="stop-color:#ffffff;stop-opacity:1;" offset="0.51028222" id="stop6040" /><stop style="stop-color:#000000;stop-opacity:1;" offset="1" id="stop6034" /></linearGradient><linearGradient id="linearGradient6056"><stop id="stop6062" offset="0" style="stop-color:#ffffff;stop-opacity:1;" /><stop id="stop6064" offset="1" style="stop-color:#838383;stop-opacity:1;" /></linearGradient><linearGradient id="linearGradient6114"><stop style="stop-color:#ffffff;stop-opacity:0;" offset="0" id="stop6116" /><stop style="stop-color:#000000;stop-opacity:0.53846157;" offset="1" id="stop6118" /></linearGradient><radialGradient cx="77.914261" cy="-48.544521" r="146" fx="77.914261" fy="-48.544521" id="radialGradient3870" xlink:href="#linearGradient3798" gradientUnits="userSpaceOnUse" gradientTransform="matrix(1.5089497,0,0,1.3582164,-39.028917,76.957747)" /><linearGradient x1="150" y1="84" x2="299" y2="84" id="linearGradient3798" gradientUnits="userSpaceOnUse"><stop id="stop3800" style="stop-color:#dddce9;stop-opacity:1" offset="0" /><stop id="stop3802" style="stop-color:#5664a3;stop-opacity:1" offset="0.37" /><stop id="stop3804" style="stop-color:#000000;stop-opacity:1" offset="1" /></linearGradient><linearGradient id="linearGradient5463"><stop style="stop-color:#fec070;stop-opacity:1;" offset="0" id="stop5465" /><stop style="stop-color:#fec070;stop-opacity:0;" offset="1" id="stop5467" /></linearGradient><linearGradient id="linearGradient5471"><stop style="stop-color:#fec878;stop-opacity:1" offset="0" id="stop5473" /><stop style="stop-color:#ffa150;stop-opacity:1;" offset="1" id="stop5475" /></linearGradient><clipPath clipPathUnits="userSpaceOnUse" id="clipPath18"><path inkscape:connector-curvature="0" d="M 0,501.602 0,0 l 1863.85,0 0,501.602 -1863.85,0 z" id="path20" /></clipPath><clipPath clipPathUnits="userSpaceOnUse" id="clipPath18-9"><path inkscape:connector-curvature="0" d="M 0,501.602 0,0 l 1863.85,0 0,501.602 -1863.85,0 z" id="path20-0" /></clipPath><clipPath clipPathUnits="userSpaceOnUse" id="clipPath18-9-1"><path inkscape:connector-curvature="0" d="M 0,501.602 0,0 l 1863.85,0 0,501.602 -1863.85,0 z" id="path20-0-9" /></clipPath><clipPath clipPathUnits="userSpaceOnUse" id="clipPath18-9-1-5"><path inkscape:connector-curvature="0" d="M 0,501.602 0,0 l 1863.85,0 0,501.602 -1863.85,0 z" id="path20-0-9-8" /></clipPath><linearGradient id="linearGradient4689"><stop id="stop4691" offset="0" style="stop-color:#5a9fd4;stop-opacity:1;" /><stop id="stop4693" offset="1" style="stop-color:#306998;stop-opacity:1;" /></linearGradient><linearGradient id="linearGradient4671"><stop id="stop4673" offset="0" style="stop-color:#ffd43b;stop-opacity:1;" /><stop id="stop4675" offset="1" style="stop-color:#ffe873;stop-opacity:1" /></linearGradient><linearGradient id="c"><stop id="stop4686" stop-opacity=".498" stop-color="#b8b8b8" offset="0" /><stop id="stop4688" stop-opacity="0" stop-color="#7f7f7f" offset="1" /></linearGradient><linearGradient id="linearGradient4700" gradientTransform="matrix(0.562541,0,0,0.567972,-9.399749,304.46299)" gradientUnits="userSpaceOnUse" xlink:href="#linearGradient4671" y2="137.273" x2="112.031" y1="192.352" x1="150.961" /><linearGradient id="linearGradient4702" gradientTransform="matrix(0.562541,0,0,0.567972,-9.399749,304.46299)" gradientUnits="userSpaceOnUse" xlink:href="#linearGradient4689" y2="114.398" x2="135.665" y1="20.604" x1="26.649" /><radialGradient id="radialGradient4704" gradientTransform="matrix(2.382716e-8,-0.296405,1.43676,4.683673e-7,-128.544,150.5202)" gradientUnits="userSpaceOnUse" xlink:href="#c" fy="132.286" fx="61.519" r="29.037" cy="132.286" cx="61.519" /><linearGradient gradientTransform="matrix(0.562541,0,0,0.567972,-9.399749,304.46299)" gradientUnits="userSpaceOnUse" xlink:href="#linearGradient4689" id="d" y2="114.398" x2="135.665" y1="20.604" x1="26.649" /><linearGradient gradientTransform="matrix(0.562541,0,0,0.567972,-9.399749,304.46299)" gradientUnits="userSpaceOnUse" xlink:href="#linearGradient4671" id="e" y2="137.273" x2="112.031" y1="192.352" x1="150.961" /><radialGradient gradientTransform="matrix(1.5089497,0,0,1.3582164,-39.028917,76.957747)" gradientUnits="userSpaceOnUse" xlink:href="#linearGradient3798" id="radialGradient3870-0" fy="-48.544521" fx="77.914261" r="146" cy="-48.544521" cx="77.914261" /><radialGradient gradientTransform="matrix(1.5089497,0,0,1.3582164,-39.028917,76.957747)" gradientUnits="userSpaceOnUse" xlink:href="#linearGradient3798" id="radialGradient3870-4" fy="-48.544521" fx="77.914261" r="146" cy="-48.544521" cx="77.914261" /><radialGradient gradientTransform="matrix(1.5089497,0,0,1.3582164,-39.028917,76.957747)" gradientUnits="userSpaceOnUse" xlink:href="#linearGradient3798" id="radialGradient3870-7" fy="-48.544521" fx="77.914261" r="146" cy="-48.544521" cx="77.914261" /><radialGradient gradientTransform="matrix(1.5089497,0,0,1.3582164,-39.028917,76.957747)" gradientUnits="userSpaceOnUse" xlink:href="#linearGradient3798" id="radialGradient3870-2" fy="-48.544521" fx="77.914261" r="146" cy="-48.544521" cx="77.914261" /></defs><sodipodi:namedview pagecolor="#ffffff" bordercolor="#666666" borderopacity="1" objecttolerance="10" gridtolerance="10" guidetolerance="10" inkscape:pageopacity="0" inkscape:pageshadow="2" inkscape:window-width="1745" inkscape:window-height="1018" id="namedview45" showgrid="false" inkscape:zoom="0.54535033" inkscape:cx="196.76321" inkscape:cy="-304.72199" inkscape:window-x="0" inkscape:window-y="0" inkscape:window-maximized="0" inkscape:current-layer="g5508" /><style id="style3489" type="text/css"><![CDATA[
	.st0{fill:#EBEBEB;}
	.st1{fill:#8ACF17;}
	.st2{fill:#FFFFFF;}
	.st3{fill:#63A814;}
]]></style><g id="g5508" transform="matrix(0.32647839,0,0,0.32647839,-41.807808,39.83804)"><g id="g5853" transform="matrix(0.32931188,0,0,0.32931188,260.83593,-110.81483)"><g transform="translate(-362.459,-102.79926)" id="layer1-8" inkscape:label="Ebene 1"><g id="g1988"><path id="path8" class="ps00" d="m 222.69051,298.73295 555.07107,0 L 586.88245,731.7057 33.666984,731.45829 222.69051,298.73295" style="fill:#ffffff;fill-rule:evenodd;stroke:none" inkscape:connector-curvature="0" /><path id="path16" style="fill:#0a7efc;fill-opacity:1;fill-rule:evenodd;stroke:none" d="m 590.09882,445.44886 107.50095,0 -121.47978,273.39136 -106.88242,0 120.86125,-273.39136 m 139.91205,-73.97649 -440.88996,0 -4.94826,0.49483 -5.19568,0.74224 -5.31938,0.98965 -2.59783,0.24741 -2.84525,1.11336 -4.20602,1.23706 -4.57714,1.36078 -2.35043,1.48447 -3.09266,1.36078 -4.08232,1.73189 -3.58748,2.35042 -7.05127,3.8349 -6.43274,4.70085 -3.09266,2.47413 -3.34008,3.09266 -2.59784,3.09266 -2.72154,2.84525 -3.09266,4.20602 -2.84525,4.32973 -1.8556,2.35043 -1.23706,2.59783 -2.84525,4.82456 -2.35043,4.70084 -1.85559,4.32973 -1.7319,5.44309 -1.85559,7.17497 -1.23707,6.18533 -1.11336,6.43274 0,14.22624 1.11336,5.93792 1.23707,6.18532 1.85559,6.43274 1.23707,4.32973 1.60818,4.20602 1.23707,3.58749 2.35042,4.08231 2.35043,3.8349 2.22671,3.7112 2.10301,3.58748 2.84525,4.08232 3.58749,3.8349 3.58749,4.20602 2.10301,1.73189 1.23707,1.36077 0.86594,0.98966 0.49483,0.49482 83.25447,78.0588 1.23707,1.36078 1.60818,1.73189 1.73189,3.9586 0.74224,2.84525 0.61853,1.73189 0.49483,2.35043 -0.49483,2.10301 -0.61853,2.84525 -0.74224,1.9793 -1.48448,2.35043 -1.85559,2.84525 -0.74224,1.23706 -1.8556,0.86595 -1.48448,1.48447 -1.36077,0.24742 -2.22672,1.60818 -2.35042,0.74224 -2.35042,0.49483 -216.238966,0 146.963326,-333.26531 522.41255,0 -26.34949,59.87394 M 510.43183,445.44886 389.818,718.84022 l -54.30716,0 -1.60818,-0.49482 -1.23707,-0.24742 -1.11336,-1.60818 0.49483,-1.23707 1.11336,-1.36077 1.23706,-0.98965 0.49483,-0.24741 5.93791,-2.35043 4.94826,-2.59783 5.19568,-3.34008 5.31937,-3.8349 5.93792,-4.57714 5.19567,-4.45343 4.57714,-4.57714 4.45343,-5.6905 4.57714,-6.43274 3.58749,-5.6905 2.84525,-6.43274 1.36077,-3.09266 1.48448,-3.8349 2.10301,-6.55645 1.48448,-5.31938 0.86595,-5.69049 0.49482,-6.92757 0.49483,-7.05127 -0.49483,-6.43274 -0.98965,-6.18532 -1.36077,-7.17498 -0.74224,-3.58749 -0.98965,-3.58749 -2.35043,-6.18532 -2.59783,-6.43274 -3.8349,-6.80386 -3.58749,-5.31938 -4.20602,-5.44308 -1.73189,-2.10301 -1.36078,-1.73189 -0.98965,-1.36078 -0.49482,-0.49482 -88.94498,-83.50189 -1.60818,-1.8556 -1.73189,-2.22671 -1.8556,-3.09267 -0.49483,-3.58748 -0.24741,-1.8556 0.24741,-1.8556 0,-2.22672 0.49483,-1.85559 1.36077,-3.09267 1.73189,-3.58748 2.84525,-2.59784 3.34008,-2.35042 3.58749,-1.23707 1.85559,-0.49483 1.8556,0 1.73189,-0.49482 216.23896,0" inkscape:connector-curvature="0" /></g></g></g></g></svg>