<?xml version="1.0" encoding="UTF-8" standalone="no"?>
<!-- Generator: Adobe Illustrator 23.0.2, SVG Export Plug-In . SVG Version: 6.00 Build 0)  -->

<svg
   version="1.1"
   id="Layer_1"
   x="0px"
   y="0px"
   viewBox="0 0 96.000002 95.999996"
   xml:space="preserve"
   sodipodi:docname="svelte.svg"
   width="96"
   height="96"
   inkscape:version="1.2.1 (9c6d41e410, 2022-07-14, custom)"
   xmlns:inkscape="http://www.inkscape.org/namespaces/inkscape"
   xmlns:sodipodi="http://sodipodi.sourceforge.net/DTD/sodipodi-0.dtd"
   xmlns="http://www.w3.org/2000/svg"
   xmlns:svg="http://www.w3.org/2000/svg"><defs
   id="defs360" /><sodipodi:namedview
   id="namedview358"
   pagecolor="#ffffff"
   bordercolor="#000000"
   borderopacity="0.25"
   inkscape:showpageshadow="2"
   inkscape:pageopacity="0.0"
   inkscape:pagecheckerboard="0"
   inkscape:deskcolor="#d1d1d1"
   showgrid="false"
   inkscape:zoom="3.5466102"
   inkscape:cx="13.81601"
   inkscape:cy="85.433692"
   inkscape:window-width="1920"
   inkscape:window-height="1017"
   inkscape:window-x="0"
   inkscape:window-y="0"
   inkscape:window-maximized="1"
   inkscape:current-layer="Layer_1" />
<style
   type="text/css"
   id="style351">
	.st0{fill:#FF3E00;}
	.st1{fill:#FFFFFF;}
</style>

<g
   id="g481"
   transform="matrix(0.67780999,0,0,0.67780999,14.752592,7.9999999)"><path
     class="st0"
     d="m 91.825149,15.613588 c -10.9,-15.70000006 -32.6,-20.3000001 -48.2,-10.4000001 l -27.5,17.6000001 c -7.5,4.7 -12.7,12.4 -14.2,21.1 -1.29999997,7.3 -0.2,14.8 3.3,21.3 -2.4,3.6 -4,7.6 -4.69999997,11.8 -1.60000003,8.9 0.49999997,18.1 5.69999997,25.400002 11,15.7 32.6,20.3 48.2,10.4 l 27.5,-17.500002 c 7.5,-4.7 12.7,-12.4 14.2,-21.1 1.3,-7.3 0.2,-14.8 -3.3,-21.3 2.4,-3.6 4,-7.6 4.7,-11.8 1.7,-9 -0.4,-18.2 -5.7,-25.5"
     id="path353" /><path
     class="st1"
     d="m 40.925149,103.91359 c -8.9,2.3 -18.2,-1.2 -23.4,-8.700002 -3.2,-4.4 -4.4,-9.9 -3.5,-15.3 0.2,-0.9 0.4,-1.7 0.6,-2.6 l 0.5,-1.6 1.4,1 c 3.3,2.4 6.9,4.2 10.8,5.4 l 1,0.3 -0.1,1 c -0.1,1.4 0.3,2.9 1.1,4.1 1.6,2.3 4.4,3.4 7.1,2.7 0.6,-0.2 1.2,-0.4 1.7,-0.7 l 27.4,-17.5 c 1.4,-0.9 2.3,-2.2 2.6,-3.8 0.3,-1.6 -0.1,-3.3 -1,-4.6 -1.6,-2.3 -4.4,-3.3 -7.1,-2.6 -0.6,0.2 -1.2,0.4 -1.7,0.7 l -10.5,6.7 c -1.7,1.1 -3.6,1.9 -5.6,2.4 -8.9,2.3 -18.2,-1.2 -23.4,-8.7 -3.1,-4.4 -4.4,-9.9 -3.4,-15.3 0.9,-5.2 4.1,-9.9 8.6,-12.7 l 27.5,-17.5 c 1.7,-1.1 3.6,-1.9 5.6,-2.5 8.9,-2.3 18.2,1.2 23.4,8.7 3.2,4.4 4.4,9.9 3.5,15.3 -0.2,0.9 -0.4,1.7 -0.7,2.6 l -0.5,1.6 -1.4,-1 c -3.3,-2.4 -6.9,-4.2 -10.8,-5.4 l -1,-0.3 0.1,-1 c 0.1,-1.4 -0.3,-2.9 -1.1,-4.1 -1.6,-2.3 -4.4,-3.3 -7.1,-2.6 -0.6,0.2 -1.2,0.4 -1.7,0.7 l -27.4,17.5 c -1.4,0.9 -2.3,2.2 -2.6,3.8 -0.3,1.6 0.1,3.3 1,4.6 1.6,2.3 4.4,3.3 7.1,2.6 0.6,-0.2 1.2,-0.4 1.7,-0.7 l 10.5,-6.7 c 1.7,-1.1 3.6,-1.9 5.6,-2.5 8.9,-2.3 18.2,1.2 23.4,8.7 3.2,4.4 4.4,9.9 3.5,15.3 -0.9,5.2 -4.1,9.9 -8.6,12.7 l -27.5,17.500002 c -1.7,1.1 -3.6,1.9 -5.6,2.5"
     id="path355" /></g>
</svg>
